#define ar10_13_3_width 16
#define ar10_13_3_height 16
static char ar10_13_3_bits[] = {
   0x00, 0x00, 0x00, 0x00, 0x00, 0x00, 0x00, 0x0c, 0x00, 0x07, 0xe0, 0x03,
   0xfc, 0xff, 0xff, 0xff, 0xfc, 0xff, 0xe0, 0x03, 0x00, 0x07, 0x00, 0x0c,
   0x00, 0x00, 0x00, 0x00, 0x00, 0x00, 0x00, 0x00};
