#define ar8_8_6_width 16
#define ar8_8_6_height 16
static char ar8_8_6_bits[] = {
   0x80, 0x00, 0xc0, 0x00, 0xe0, 0x00, 0xf0, 0x00, 0xf8, 0x00, 0xfc, 0x00,
   0xfe, 0xff, 0xff, 0xff, 0xfe, 0xff, 0xfc, 0x00, 0xf8, 0x00, 0xf0, 0x00,
   0xe0, 0x00, 0xc0, 0x00, 0x80, 0x00, 0x00, 0x00};
