#define arrowfirst_width 43
#define arrowfirst_height 13
static char arrowfirst_bits[] = {
   0x00, 0x00, 0x00, 0x00, 0x00, 0x00, 0x00, 0x00, 0x00, 0x00, 0x00, 0x00,
   0x00, 0x00, 0x00, 0x00, 0x00, 0x00, 0x00, 0x02, 0x00, 0x00, 0x00, 0x40,
   0x00, 0x03, 0x00, 0x00, 0x00, 0x60, 0x80, 0x03, 0x00, 0x00, 0x00, 0x70,
   0xc0, 0xff, 0xff, 0xff, 0x1f, 0xf8, 0x80, 0x03, 0x00, 0x00, 0x00, 0x70,
   0x00, 0x03, 0x00, 0x00, 0x00, 0x60, 0x00, 0x02, 0x00, 0x00, 0x00, 0x40,
   0x00, 0x00, 0x00, 0x00, 0x00, 0x00, 0x00, 0x00, 0x00, 0x00, 0x00, 0x00,
   0x00, 0x00, 0x00, 0x00, 0x00, 0x00};
