#define file_width 16
#define file_height 16
static char file_bits[] = {
   0xfe, 0x07, 0x02, 0x0c, 0x02, 0x14, 0x02, 0x24, 0x1a, 0x7c, 0x02, 0x40,
   0xfa, 0x43, 0x02, 0x40, 0xfa, 0x47, 0x02, 0x40, 0xfa, 0x4f, 0x02, 0x40,
   0xfa, 0x43, 0x02, 0x40, 0x02, 0x40, 0xfe, 0x7f};
