#define flipy_width 16
#define flipy_height 16
static char flipy_bits[] = {
   0x00, 0x00, 0x08, 0x00, 0x1c, 0x38, 0x3e, 0x38, 0x7f, 0x38, 0x1c, 0x38,
   0x1c, 0x38, 0x9c, 0x39, 0x9c, 0x39, 0x1c, 0x38, 0x1c, 0x38, 0x1c, 0xfe,
   0x1c, 0x7c, 0x1c, 0x38, 0x00, 0x10, 0x00, 0x00};
