#define flipx_width 16
#define flipx_height 16
static char flipx_bits[] = {
   0x00, 0x08, 0x00, 0x18, 0xfc, 0x3f, 0xfc, 0x7f, 0xfc, 0x3f, 0x00, 0x18,
   0x00, 0x08, 0x80, 0x01, 0x80, 0x01, 0x10, 0x00, 0x18, 0x00, 0xfc, 0x3f,
   0xfe, 0x3f, 0xfc, 0x3f, 0x18, 0x00, 0x10, 0x00};
