#define freehand_width 16
#define freehand_height 16
static char freehand_bits[] = {
   0x00, 0x00, 0x00, 0x00, 0x00, 0x00, 0xc0, 0x00, 0x20, 0x01, 0x10, 0x02,
   0x10, 0x02, 0x10, 0x02, 0x11, 0x02, 0x22, 0x41, 0xcc, 0x20, 0xb0, 0x10,
   0x00, 0x0f, 0x00, 0x00, 0x00, 0x00, 0x00, 0x00};
