#define label_width 16
#define label_height 16
static char label_bits[] = {
   0xff, 0xff, 0x01, 0x80, 0x01, 0x80, 0x81, 0x80, 0x81, 0x80, 0x41, 0x81,
   0x41, 0x81, 0x21, 0x82, 0x21, 0x82, 0xe1, 0x83, 0x11, 0x84, 0x11, 0x84,
   0x39, 0x8e, 0x01, 0x80, 0x01, 0x80, 0xff, 0xff};
