#define left_arrow_width 16
#define left_arrow_height 16
static char left_arrow_bits[] = {
   0x00, 0x00, 0x00, 0x00, 0x00, 0x00, 0xc0, 0x00, 0xe0, 0x00, 0xf0, 0x00,
   0xf8, 0x3f, 0xfc, 0x3f, 0xfc, 0x3f, 0xf8, 0x3f, 0xf0, 0x00, 0xe0, 0x00,
   0xc0, 0x00, 0x00, 0x00, 0x00, 0x00, 0x00, 0x00};
