#define link_width 16
#define link_height 13
static char link_bits[] = {
   0x00, 0x7e, 0x00, 0x81, 0xff, 0xff, 0x01, 0x80, 0x01, 0x84, 0x01, 0x8c,
   0xfd, 0x97, 0x55, 0xad, 0xfd, 0x97, 0x01, 0x8c, 0x01, 0x84, 0x01, 0x80,
   0xff, 0xff};
