#define objselect_width 16
#define objselect_height 16
static char objselect_bits[] = {
   0x00, 0x00, 0x00, 0x00, 0x04, 0x00, 0x0c, 0x00, 0x1c, 0x00, 0x3c, 0x00,
   0x7c, 0x00, 0xfc, 0x00, 0xfc, 0x01, 0xfc, 0x03, 0x6c, 0x00, 0xc4, 0x00,
   0xc0, 0x00, 0x80, 0x01, 0x80, 0x01, 0x00, 0x00};
