#define pat10_width 16
#define pat10_height 16
static char pat10_bits[] = {
   0x33, 0x33, 0x33, 0x33, 0x33, 0x33, 0x33, 0x33, 0x33, 0x33, 0x33, 0x33,
   0x33, 0x33, 0x33, 0x33, 0x33, 0x33, 0x33, 0x33, 0x33, 0x33, 0x33, 0x33,
   0x33, 0x33, 0x33, 0x33, 0x33, 0x33, 0x33, 0x33};
