#define pat14_width 16
#define pat14_height 16
static char pat14_bits[] = {
   0x81, 0x40, 0x02, 0x81, 0x04, 0x02, 0x08, 0x04, 0x10, 0x08, 0x20, 0x10,
   0x40, 0x20, 0x81, 0x40, 0x02, 0x81, 0x04, 0x02, 0x08, 0x04, 0x10, 0x08,
   0x20, 0x10, 0x40, 0x20, 0x81, 0x40, 0x02, 0x81};
