#define pat4_width 16
#define pat4_height 16
static char pat4_bits[] = {
   0x11, 0x11, 0x44, 0x44, 0x11, 0x11, 0x44, 0x44, 0x11, 0x11, 0x44, 0x44,
   0x11, 0x11, 0x44, 0x44, 0x11, 0x11, 0x44, 0x44, 0x11, 0x11, 0x44, 0x44,
   0x11, 0x11, 0x44, 0x44, 0x11, 0x11, 0x44, 0x44};
