#define pat6_width 16
#define pat6_height 16
static char pat6_bits[] = {
   0x08, 0x82, 0x00, 0x00, 0x41, 0x10, 0x00, 0x00, 0x08, 0x82, 0x00, 0x00,
   0x41, 0x10, 0x00, 0x00, 0x08, 0x82, 0x00, 0x00, 0x41, 0x10, 0x00, 0x00,
   0x08, 0x82, 0x00, 0x00, 0x41, 0x10, 0x00, 0x00};
