#define polyline_width 16
#define polyline_height 16
static char polyline_bits[] = {
   0x00, 0x00, 0x01, 0xc0, 0x03, 0xb0, 0x05, 0x4c, 0x09, 0x43, 0xd1, 0x20,
   0x21, 0x20, 0x01, 0x10, 0x01, 0x10, 0x01, 0x08, 0x01, 0x08, 0x01, 0x00,
   0x06, 0x00, 0x18, 0x00, 0x60, 0x00, 0x00, 0x00};
