#define region_width 16
#define region_height 16
static char region_bits[] = {
   0xb7, 0xed, 0x01, 0x80, 0x01, 0x80, 0x00, 0x00, 0x01, 0x80, 0x01, 0x80,
   0x00, 0x00, 0x01, 0x80, 0x01, 0x80, 0x00, 0x00, 0x01, 0x80, 0x01, 0x80,
   0x00, 0x00, 0x01, 0x80, 0x01, 0x80, 0xb7, 0xed};
