#define rotate_width 16
#define rotate_height 16
static char rotate_bits[] = {
   0xe1, 0x07, 0xfb, 0x1f, 0x3f, 0x3c, 0x0f, 0x70, 0x1f, 0x60, 0x3f, 0xe0,
   0x7f, 0xc0, 0x00, 0x00, 0x00, 0x00, 0x03, 0xfe, 0x07, 0xfc, 0x06, 0xf8,
   0x0e, 0xf0, 0x3c, 0xfc, 0xf8, 0xdf, 0xe0, 0x87};
