#define shiftdragb1_width 28
#define shiftdragb1_height 16
static char shiftdragb1_bits[] = {
   0x00, 0x80, 0xff, 0x01, 0x40, 0xc0, 0xff, 0x03, 0xc0, 0xc0, 0x6c, 0x03,
   0xfe, 0xc1, 0x6c, 0x03, 0xc0, 0xc0, 0x6c, 0x03, 0x40, 0xc0, 0x6c, 0x03,
   0x00, 0xc8, 0x6c, 0x03, 0x20, 0xdc, 0x6c, 0x03, 0x70, 0xc8, 0xff, 0x03,
   0xf8, 0xc0, 0xff, 0x03, 0x20, 0xc0, 0xff, 0x03, 0x20, 0xc0, 0xff, 0x03,
   0x20, 0xc0, 0xff, 0x03, 0x20, 0xc0, 0x3f, 0x02, 0x20, 0xc0, 0xff, 0x03,
   0x00, 0x80, 0xff, 0x01};
