#define shiftb1_width 28
#define shiftb1_height 16
static char shiftb1_bits[] = {
   0x00, 0x80, 0xff, 0x01, 0x00, 0xc0, 0xff, 0x03, 0x10, 0xc0, 0x6c, 0x03,
   0x38, 0xc0, 0x6c, 0x03, 0x7c, 0xc0, 0x6c, 0x03, 0xfe, 0xc0, 0x6c, 0x03,
   0x10, 0xc0, 0x6c, 0x03, 0x10, 0xc2, 0x6c, 0x03, 0x10, 0xc7, 0xff, 0x03,
   0x10, 0xc2, 0xff, 0x03, 0x10, 0xc0, 0xff, 0x03, 0x10, 0xc0, 0xff, 0x03,
   0x10, 0xc0, 0xff, 0x03, 0x10, 0xc0, 0x3f, 0x02, 0x10, 0xc0, 0xff, 0x03,
   0x00, 0x80, 0xff, 0x01};
