#define junk.xbm_width 128
#define junk.xbm_height 128
static char junk.xbm_bits[] = {
   0x00, 0x00, 0x00, 0x00, 0x00, 0x00, 0x00, 0x00, 0x00, 0x00, 0x00, 0x00,
   0x00, 0x00, 0x00, 0x00, 0x00, 0x00, 0x00, 0x00, 0x00, 0x00, 0x00, 0x00,
   0x00, 0x00, 0x00, 0x00, 0x00, 0x00, 0x00, 0x00, 0x00, 0x00, 0x00, 0x00,
   0x00, 0x00, 0x00, 0x00, 0x00, 0x00, 0x00, 0x00, 0x00, 0x00, 0x00, 0x00,
   0xf8, 0xff, 0xff, 0xff, 0xff, 0xff, 0xff, 0xff, 0xff, 0xff, 0xff, 0xff,
   0xff, 0xff, 0xff, 0x1f, 0xf8, 0xff, 0xff, 0xff, 0xff, 0xff, 0xff, 0xff,
   0xff, 0xff, 0xff, 0xff, 0xff, 0xff, 0xff, 0x1f, 0x18, 0x00, 0x00, 0x00,
   0x00, 0x00, 0x00, 0x00, 0x00, 0x00, 0x00, 0x00, 0x00, 0x00, 0x00, 0x18,
   0x18, 0x00, 0x00, 0x00, 0x00, 0x00, 0x00, 0x00, 0x00, 0x00, 0x00, 0x00,
   0x00, 0x00, 0x00, 0x18, 0x18, 0x00, 0x00, 0x00, 0x00, 0x00, 0x00, 0x00,
   0x00, 0x00, 0x00, 0x00, 0x00, 0x00, 0x00, 0x18, 0x18, 0x00, 0x00, 0x00,
   0x00, 0x00, 0x00, 0x00, 0x00, 0x00, 0x00, 0x00, 0x00, 0x00, 0x00, 0x18,
   0x18, 0x00, 0x00, 0x00, 0x00, 0x00, 0x00, 0x00, 0x00, 0x00, 0x00, 0x00,
   0x00, 0x00, 0x00, 0x18, 0x18, 0x00, 0x00, 0x00, 0x00, 0x00, 0x00, 0x00,
   0x00, 0x00, 0x00, 0x00, 0x00, 0x00, 0x00, 0x18, 0x18, 0x00, 0x00, 0x00,
   0x00, 0x00, 0x00, 0x00, 0x00, 0x00, 0x00, 0x00, 0x00, 0x00, 0x00, 0x18,
   0x18, 0x00, 0x00, 0x00, 0x00, 0x00, 0x00, 0x00, 0x00, 0x00, 0x00, 0x00,
   0x00, 0x00, 0x00, 0x18, 0x18, 0x00, 0x00, 0x00, 0x00, 0x00, 0x00, 0x00,
   0x00, 0x00, 0x00, 0x00, 0x00, 0x00, 0x00, 0x18, 0x18, 0x00, 0x00, 0x00,
   0x00, 0x00, 0x00, 0x00, 0x00, 0x00, 0x00, 0x00, 0x00, 0x00, 0x00, 0x18,
   0x18, 0x00, 0x00, 0x00, 0x00, 0x00, 0x00, 0x00, 0x00, 0x00, 0x00, 0x00,
   0x00, 0x00, 0x00, 0x18, 0x18, 0x00, 0x00, 0x00, 0x00, 0x00, 0x00, 0x00,
   0x00, 0x00, 0x00, 0x00, 0x00, 0x00, 0x00, 0x18, 0x18, 0x00, 0x00, 0x00,
   0x00, 0x00, 0x00, 0x00, 0x00, 0x00, 0x00, 0x00, 0x00, 0x00, 0x00, 0x18,
   0x18, 0x00, 0x00, 0x00, 0x00, 0x00, 0x00, 0x00, 0x00, 0x00, 0x00, 0x00,
   0x00, 0x00, 0x00, 0x18, 0x18, 0x00, 0x00, 0x00, 0x00, 0x00, 0x00, 0x00,
   0x00, 0x00, 0x00, 0x00, 0x00, 0x00, 0x00, 0x18, 0x18, 0x00, 0x00, 0x00,
   0x00, 0x00, 0x00, 0x00, 0x00, 0x00, 0x00, 0x00, 0x00, 0x00, 0x00, 0x18,
   0x18, 0x00, 0x00, 0x00, 0x00, 0x00, 0x00, 0x00, 0x00, 0x00, 0x00, 0x00,
   0x00, 0x00, 0x00, 0x18, 0x18, 0x00, 0x00, 0x00, 0x00, 0x00, 0x00, 0x00,
   0x00, 0x00, 0x00, 0x00, 0x00, 0x00, 0x00, 0x18, 0x18, 0x00, 0x00, 0x00,
   0x00, 0x00, 0x00, 0x00, 0x00, 0x00, 0x00, 0x00, 0x00, 0x00, 0x00, 0x18,
   0x18, 0x00, 0x00, 0x00, 0x00, 0x00, 0x00, 0x00, 0x00, 0x00, 0x00, 0x00,
   0x00, 0x00, 0x00, 0x18, 0x18, 0x00, 0x00, 0x00, 0x00, 0x00, 0x00, 0x00,
   0x00, 0x00, 0x00, 0x00, 0x00, 0x00, 0x00, 0x18, 0x18, 0x00, 0x00, 0x00,
   0x00, 0x00, 0x00, 0x00, 0x00, 0x00, 0x00, 0x00, 0x00, 0x00, 0x00, 0x18,
   0x18, 0x00, 0x00, 0x00, 0x00, 0x00, 0x00, 0x00, 0x00, 0x00, 0x00, 0x00,
   0x00, 0x00, 0x00, 0x18, 0x18, 0x00, 0x00, 0x00, 0x00, 0x00, 0x00, 0x00,
   0x00, 0x00, 0x00, 0x00, 0x00, 0x00, 0x00, 0x18, 0x18, 0x00, 0x00, 0x00,
   0x00, 0x00, 0x00, 0x00, 0x00, 0x00, 0x00, 0x00, 0x00, 0x00, 0x00, 0x18,
   0x18, 0x00, 0x00, 0x00, 0x00, 0x00, 0x00, 0x00, 0x00, 0x00, 0x00, 0x00,
   0x00, 0x00, 0x00, 0x18, 0x18, 0x00, 0x00, 0x00, 0x00, 0x00, 0x00, 0x00,
   0x00, 0x00, 0x00, 0x00, 0x00, 0x00, 0x00, 0x18, 0x18, 0x00, 0x00, 0x00,
   0x00, 0x00, 0x00, 0x00, 0x00, 0x00, 0x00, 0x00, 0x00, 0x00, 0x00, 0x18,
   0x18, 0x00, 0x00, 0x00, 0x00, 0x00, 0x00, 0x00, 0x00, 0x00, 0x00, 0x00,
   0x00, 0x00, 0x00, 0x18, 0x18, 0x00, 0x00, 0x00, 0x00, 0x00, 0x00, 0x00,
   0x00, 0x00, 0x00, 0x00, 0x00, 0x00, 0x00, 0x18, 0x18, 0x00, 0x00, 0x00,
   0x00, 0x00, 0x00, 0x00, 0x00, 0x00, 0x00, 0x00, 0x00, 0x00, 0x00, 0x18,
   0x18, 0x00, 0x00, 0x00, 0x00, 0x00, 0x00, 0x00, 0x00, 0x00, 0x00, 0x00,
   0x00, 0x00, 0x00, 0x18, 0x18, 0x00, 0x00, 0x00, 0x00, 0x00, 0x00, 0x00,
   0x00, 0x00, 0x00, 0x00, 0x00, 0x00, 0x00, 0x18, 0x18, 0x00, 0x00, 0x00,
   0x00, 0x00, 0x00, 0x00, 0x00, 0x00, 0x00, 0x00, 0x00, 0x00, 0x00, 0x18,
   0x18, 0x00, 0x00, 0x00, 0x00, 0x00, 0x00, 0x00, 0x00, 0x00, 0x00, 0x00,
   0x00, 0x00, 0x00, 0x18, 0x18, 0x00, 0x00, 0x00, 0x00, 0x00, 0x00, 0x00,
   0x00, 0x00, 0x00, 0x00, 0x00, 0x00, 0x00, 0x18, 0x18, 0x00, 0x00, 0x00,
   0x00, 0x00, 0x00, 0x00, 0x00, 0x00, 0x00, 0x00, 0x00, 0x00, 0x00, 0x18,
   0x18, 0x00, 0x00, 0x00, 0x00, 0x00, 0x00, 0x00, 0x00, 0x00, 0x00, 0x00,
   0x00, 0x00, 0x00, 0x18, 0x18, 0xf0, 0xff, 0xff, 0x00, 0xff, 0xff, 0x0f,
   0xf0, 0xff, 0xff, 0x00, 0xff, 0xff, 0x0f, 0x18, 0x18, 0xf0, 0xff, 0xff,
   0x00, 0xff, 0xff, 0x0f, 0xf0, 0xff, 0xff, 0x00, 0xff, 0xff, 0x0f, 0x18,
   0x18, 0x30, 0x00, 0x00, 0x00, 0x00, 0x06, 0x00, 0x30, 0x00, 0xc0, 0x00,
   0x03, 0x00, 0x0c, 0x18, 0x18, 0x30, 0x00, 0x00, 0x00, 0x00, 0x06, 0x00,
   0x30, 0x00, 0xc0, 0x00, 0x03, 0x00, 0x0c, 0x18, 0x18, 0x30, 0x00, 0x00,
   0x00, 0x00, 0x06, 0x00, 0x30, 0x00, 0xc0, 0x00, 0x03, 0x00, 0x0c, 0x18,
   0x18, 0x30, 0x00, 0x00, 0x00, 0x00, 0x06, 0x00, 0x30, 0x00, 0xc0, 0x00,
   0x03, 0x00, 0x0c, 0x18, 0x18, 0x30, 0x00, 0x00, 0x00, 0x00, 0x06, 0x00,
   0x30, 0x00, 0xc0, 0x00, 0x03, 0x00, 0x0c, 0x18, 0x18, 0x30, 0x00, 0x00,
   0x00, 0x00, 0x06, 0x00, 0x30, 0x00, 0xc0, 0x00, 0x03, 0x00, 0x0c, 0x18,
   0x18, 0x30, 0x00, 0x00, 0x00, 0x00, 0x06, 0x00, 0x30, 0x00, 0xc0, 0x00,
   0x03, 0x00, 0x0c, 0x18, 0x18, 0x30, 0x00, 0x00, 0x00, 0x00, 0x06, 0x00,
   0x30, 0x00, 0xc0, 0x00, 0x03, 0x00, 0x0c, 0x18, 0x18, 0x30, 0x00, 0x00,
   0x00, 0x00, 0x06, 0x00, 0x30, 0x00, 0xc0, 0x00, 0x03, 0x00, 0x0c, 0x18,
   0x18, 0x30, 0x00, 0x00, 0x00, 0x00, 0x06, 0x00, 0x30, 0x00, 0xc0, 0x00,
   0x03, 0x00, 0x0c, 0x18, 0x18, 0x30, 0x00, 0x00, 0x00, 0x00, 0x06, 0x00,
   0x30, 0x00, 0xc0, 0x00, 0x03, 0x00, 0x0c, 0x18, 0x18, 0x30, 0x00, 0x00,
   0x00, 0x00, 0x06, 0x00, 0x30, 0x00, 0xc0, 0x00, 0x03, 0x00, 0x0c, 0x18,
   0x18, 0x30, 0x00, 0x00, 0x00, 0x00, 0x06, 0x00, 0x30, 0x00, 0xc0, 0x00,
   0x03, 0x00, 0x0c, 0x18, 0x18, 0x30, 0x00, 0x00, 0x00, 0x00, 0x06, 0x00,
   0x30, 0x00, 0xc0, 0x00, 0x03, 0x00, 0x0c, 0x18, 0x18, 0x30, 0x00, 0x00,
   0x00, 0x00, 0x06, 0x00, 0x30, 0x00, 0xc0, 0x00, 0x03, 0x00, 0x0c, 0x18,
   0x18, 0x30, 0x00, 0x00, 0x00, 0x00, 0x06, 0x00, 0x30, 0x00, 0xc0, 0x00,
   0x03, 0x00, 0x0c, 0x18, 0x18, 0x30, 0x00, 0x00, 0x00, 0x00, 0x06, 0x00,
   0x30, 0x00, 0xc0, 0x00, 0x03, 0x00, 0x0c, 0x18, 0x18, 0x30, 0x00, 0x00,
   0x00, 0x00, 0x06, 0x00, 0x30, 0x00, 0xc0, 0x00, 0x03, 0x00, 0x0c, 0x18,
   0x18, 0xf0, 0xff, 0xff, 0x00, 0x00, 0x06, 0x00, 0x30, 0x00, 0xc0, 0x00,
   0xff, 0xff, 0x0f, 0x18, 0x18, 0xf0, 0xff, 0xff, 0x00, 0x00, 0x06, 0x00,
   0x30, 0x00, 0xc0, 0x00, 0xff, 0xff, 0x0f, 0x18, 0x18, 0x00, 0x00, 0xc0,
   0x00, 0x00, 0x06, 0x00, 0x30, 0x00, 0xc0, 0x00, 0x03, 0x00, 0x00, 0x18,
   0x18, 0x00, 0x00, 0xc0, 0x00, 0x00, 0x06, 0x00, 0x30, 0x00, 0xc0, 0x00,
   0x03, 0x00, 0x00, 0x18, 0x18, 0x00, 0x00, 0xc0, 0x00, 0x00, 0x06, 0x00,
   0x30, 0x00, 0xc0, 0x00, 0x03, 0x00, 0x00, 0x18, 0x18, 0x00, 0x00, 0xc0,
   0x00, 0x00, 0x06, 0x00, 0x30, 0x00, 0xc0, 0x00, 0x03, 0x00, 0x00, 0x18,
   0x18, 0x00, 0x00, 0xc0, 0x00, 0x00, 0x06, 0x00, 0x30, 0x00, 0xc0, 0x00,
   0x03, 0x00, 0x00, 0x18, 0x18, 0x00, 0x00, 0xc0, 0x00, 0x00, 0x06, 0x00,
   0x30, 0x00, 0xc0, 0x00, 0x03, 0x00, 0x00, 0x18, 0x18, 0x00, 0x00, 0xc0,
   0x00, 0x00, 0x06, 0x00, 0x30, 0x00, 0xc0, 0x00, 0x03, 0x00, 0x00, 0x18,
   0x18, 0x00, 0x00, 0xc0, 0x00, 0x00, 0x06, 0x00, 0x30, 0x00, 0xc0, 0x00,
   0x03, 0x00, 0x00, 0x18, 0x18, 0x00, 0x00, 0xc0, 0x00, 0x00, 0x06, 0x00,
   0x30, 0x00, 0xc0, 0x00, 0x03, 0x00, 0x00, 0x18, 0x18, 0x00, 0x00, 0xc0,
   0x00, 0x00, 0x06, 0x00, 0x30, 0x00, 0xc0, 0x00, 0x03, 0x00, 0x00, 0x18,
   0x18, 0x00, 0x00, 0xc0, 0x00, 0x00, 0x06, 0x00, 0x30, 0x00, 0xc0, 0x00,
   0x03, 0x00, 0x00, 0x18, 0x18, 0x00, 0x00, 0xc0, 0x00, 0x00, 0x06, 0x00,
   0x30, 0x00, 0xc0, 0x00, 0x03, 0x00, 0x00, 0x18, 0x18, 0x00, 0x00, 0xc0,
   0x00, 0x00, 0x06, 0x00, 0x30, 0x00, 0xc0, 0x00, 0x03, 0x00, 0x00, 0x18,
   0x18, 0x00, 0x00, 0xc0, 0x00, 0x00, 0x06, 0x00, 0x30, 0x00, 0xc0, 0x00,
   0x03, 0x00, 0x00, 0x18, 0x18, 0x00, 0x00, 0xc0, 0x00, 0x00, 0x06, 0x00,
   0x30, 0x00, 0xc0, 0x00, 0x03, 0x00, 0x00, 0x18, 0x18, 0x00, 0x00, 0xc0,
   0x00, 0x00, 0x06, 0x00, 0x30, 0x00, 0xc0, 0x00, 0x03, 0x00, 0x00, 0x18,
   0x18, 0x00, 0x00, 0xc0, 0x00, 0x00, 0x06, 0x00, 0x30, 0x00, 0xc0, 0x00,
   0x03, 0x00, 0x00, 0x18, 0x18, 0x00, 0x00, 0xc0, 0x00, 0x00, 0x06, 0x00,
   0x30, 0x00, 0xc0, 0x00, 0x03, 0x00, 0x00, 0x18, 0x18, 0xf0, 0xff, 0xff,
   0x00, 0x00, 0x06, 0x00, 0xf0, 0xff, 0xff, 0x00, 0x03, 0x00, 0x00, 0x18,
   0x18, 0xf0, 0xff, 0xff, 0x00, 0x00, 0x06, 0x00, 0xf0, 0xff, 0xff, 0x00,
   0x03, 0x00, 0x00, 0x18, 0x18, 0x00, 0x00, 0x00, 0x00, 0x00, 0x00, 0x00,
   0x00, 0x00, 0x00, 0x00, 0x00, 0x00, 0x00, 0x18, 0x18, 0x00, 0x00, 0x00,
   0x00, 0x00, 0x00, 0x00, 0x00, 0x00, 0x00, 0x00, 0x00, 0x00, 0x00, 0x18,
   0x18, 0x00, 0x00, 0x00, 0x00, 0x00, 0x00, 0x00, 0x00, 0x00, 0x00, 0x00,
   0x00, 0x00, 0x00, 0x18, 0x18, 0x00, 0x00, 0x00, 0x00, 0x00, 0x00, 0x00,
   0x00, 0x00, 0x00, 0x00, 0x00, 0x00, 0x00, 0x18, 0x18, 0x00, 0x00, 0x00,
   0x00, 0x00, 0x00, 0x00, 0x00, 0x00, 0x00, 0x00, 0x00, 0x00, 0x00, 0x18,
   0x18, 0x00, 0x00, 0x00, 0x00, 0x00, 0x00, 0x00, 0x00, 0x00, 0x00, 0x00,
   0x00, 0x00, 0x00, 0x18, 0x18, 0x00, 0x00, 0x00, 0x00, 0x00, 0x00, 0x00,
   0x00, 0x00, 0x00, 0x00, 0x00, 0x00, 0x00, 0x18, 0x18, 0x00, 0x00, 0x00,
   0x00, 0x00, 0x00, 0x00, 0x00, 0x00, 0x00, 0x00, 0x00, 0x00, 0x00, 0x18,
   0x18, 0x00, 0x00, 0x00, 0x00, 0x00, 0x00, 0x00, 0x00, 0x00, 0x00, 0x00,
   0x00, 0x00, 0x00, 0x18, 0x18, 0x00, 0x00, 0x00, 0x00, 0x00, 0x00, 0x00,
   0x00, 0x00, 0x00, 0x00, 0x00, 0x00, 0x00, 0x18, 0x18, 0x00, 0x00, 0x00,
   0x00, 0x00, 0x00, 0x00, 0x00, 0x00, 0x00, 0x00, 0x00, 0x00, 0x00, 0x18,
   0x18, 0x00, 0x00, 0x00, 0x00, 0x00, 0x00, 0x00, 0x00, 0x00, 0x00, 0x00,
   0x00, 0x00, 0x00, 0x18, 0x18, 0x00, 0x00, 0x00, 0x00, 0x00, 0x00, 0x00,
   0x00, 0x00, 0x00, 0x00, 0x00, 0x00, 0x00, 0x18, 0x18, 0x00, 0x00, 0x00,
   0x00, 0x00, 0x00, 0x00, 0x00, 0x00, 0x00, 0x00, 0x00, 0x00, 0x00, 0x18,
   0x18, 0x00, 0x00, 0x00, 0x00, 0x00, 0x00, 0x00, 0x00, 0x00, 0x00, 0x00,
   0x00, 0x00, 0x00, 0x18, 0x18, 0x00, 0x00, 0x00, 0x00, 0x00, 0x00, 0x00,
   0x00, 0x00, 0x00, 0x00, 0x00, 0x00, 0x00, 0x18, 0x18, 0x00, 0x00, 0x00,
   0x00, 0x00, 0x00, 0x00, 0x00, 0x00, 0x00, 0x00, 0x00, 0x00, 0x00, 0x18,
   0x18, 0x00, 0x00, 0x00, 0x00, 0x00, 0x00, 0x00, 0x00, 0x00, 0x00, 0x00,
   0x00, 0x00, 0x00, 0x18, 0x18, 0x00, 0x00, 0x00, 0x00, 0x00, 0x00, 0x00,
   0x00, 0x00, 0x00, 0x00, 0x00, 0x00, 0x00, 0x18, 0x18, 0x00, 0x00, 0x00,
   0x00, 0x00, 0x00, 0x00, 0x00, 0x00, 0x00, 0x00, 0x00, 0x00, 0x00, 0x18,
   0x18, 0x00, 0x00, 0x00, 0x00, 0x00, 0x00, 0x00, 0x00, 0x00, 0x00, 0x00,
   0x00, 0x00, 0x00, 0x18, 0x18, 0x00, 0x00, 0x00, 0x00, 0x00, 0x00, 0x00,
   0x00, 0x00, 0x00, 0x00, 0x00, 0x00, 0x00, 0x18, 0x18, 0x00, 0x00, 0x00,
   0x00, 0x00, 0x00, 0x00, 0x00, 0x00, 0x00, 0x00, 0x00, 0x00, 0x00, 0x18,
   0x18, 0x00, 0x00, 0x00, 0x00, 0x00, 0x00, 0x00, 0x00, 0x00, 0x00, 0x00,
   0x00, 0x00, 0x00, 0x18, 0x18, 0x00, 0x00, 0x00, 0x00, 0x00, 0x00, 0x00,
   0x00, 0x00, 0x00, 0x00, 0x00, 0x00, 0x00, 0x18, 0x18, 0x00, 0x00, 0x00,
   0x00, 0x00, 0x00, 0x00, 0x00, 0x00, 0x00, 0x00, 0x00, 0x00, 0x00, 0x18,
   0x18, 0x00, 0x00, 0x00, 0x00, 0x00, 0x00, 0x00, 0x00, 0x00, 0x00, 0x00,
   0x00, 0x00, 0x00, 0x18, 0x18, 0x00, 0x00, 0x00, 0x00, 0x00, 0x00, 0x00,
   0x00, 0x00, 0x00, 0x00, 0x00, 0x00, 0x00, 0x18, 0x18, 0x00, 0x00, 0x00,
   0x00, 0x00, 0x00, 0x00, 0x00, 0x00, 0x00, 0x00, 0x00, 0x00, 0x00, 0x18,
   0x18, 0x00, 0x00, 0x00, 0x00, 0x00, 0x00, 0x00, 0x00, 0x00, 0x00, 0x00,
   0x00, 0x00, 0x00, 0x18, 0x18, 0x00, 0x00, 0x00, 0x00, 0x00, 0x00, 0x00,
   0x00, 0x00, 0x00, 0x00, 0x00, 0x00, 0x00, 0x18, 0x18, 0x00, 0x00, 0x00,
   0x00, 0x00, 0x00, 0x00, 0x00, 0x00, 0x00, 0x00, 0x00, 0x00, 0x00, 0x18,
   0x18, 0x00, 0x00, 0x00, 0x00, 0x00, 0x00, 0x00, 0x00, 0x00, 0x00, 0x00,
   0x00, 0x00, 0x00, 0x18, 0x18, 0x00, 0x00, 0x00, 0x00, 0x00, 0x00, 0x00,
   0x00, 0x00, 0x00, 0x00, 0x00, 0x00, 0x00, 0x18, 0x18, 0x00, 0x00, 0x00,
   0x00, 0x00, 0x00, 0x00, 0x00, 0x00, 0x00, 0x00, 0x00, 0x00, 0x00, 0x18,
   0x18, 0x00, 0x00, 0x00, 0x00, 0x00, 0x00, 0x00, 0x00, 0x00, 0x00, 0x00,
   0x00, 0x00, 0x00, 0x18, 0x18, 0x00, 0x00, 0x00, 0x00, 0x00, 0x00, 0x00,
   0x00, 0x00, 0x00, 0x00, 0x00, 0x00, 0x00, 0x18, 0x18, 0x00, 0x00, 0x00,
   0x00, 0x00, 0x00, 0x00, 0x00, 0x00, 0x00, 0x00, 0x00, 0x00, 0x00, 0x18,
   0xf8, 0xff, 0xff, 0xff, 0xff, 0xff, 0xff, 0xff, 0xff, 0xff, 0xff, 0xff,
   0xff, 0xff, 0xff, 0x1f, 0xf8, 0xff, 0xff, 0xff, 0xff, 0xff, 0xff, 0xff,
   0xff, 0xff, 0xff, 0xff, 0xff, 0xff, 0xff, 0x1f, 0x00, 0x00, 0x00, 0x00,
   0x00, 0x00, 0x00, 0x00, 0x00, 0x00, 0x00, 0x00, 0x00, 0x00, 0x00, 0x00,
   0x00, 0x00, 0x00, 0x00, 0x00, 0x00, 0x00, 0x00, 0x00, 0x00, 0x00, 0x00,
   0x00, 0x00, 0x00, 0x00, 0x00, 0x00, 0x00, 0x00, 0x00, 0x00, 0x00, 0x00,
   0x00, 0x00, 0x00, 0x00, 0x00, 0x00, 0x00, 0x00};
