#define Popup_width 15
#define Popup_height 15
static char Popup_bits[] = {
   0x00, 0x00, 0x00, 0x00, 0x00, 0x00, 0xfe, 0x3f, 0x02, 0x20, 0xfa, 0x2f,
   0x0a, 0x28, 0x0a, 0x28, 0x0a, 0x28, 0xfa, 0x2f, 0x02, 0x20, 0xfe, 0x3f,
   0x00, 0x00, 0x00, 0x00, 0x00, 0x00};
