#define anyselect_width 16
#define anyselect_height 16
static char anyselect_bits[] = {
   0x00, 0x00, 0x00, 0x00, 0x01, 0x63, 0x03, 0x14, 0x07, 0x08, 0x0f, 0x08,
   0x1f, 0x08, 0x3f, 0x08, 0x7f, 0x08, 0xff, 0x08, 0x1b, 0x08, 0x31, 0x08,
   0x30, 0x08, 0x60, 0x14, 0x60, 0x63, 0x00, 0x00};
