#define ar12_11_3_width 16
#define ar12_11_3_height 16
static char ar12_11_3_bits[] = {
   0x00, 0x00, 0x00, 0x00, 0x00, 0x00, 0x00, 0x06, 0x80, 0x07, 0xf0, 0x0f,
   0xfe, 0xff, 0xff, 0xff, 0xfe, 0xff, 0xf0, 0x0f, 0x80, 0x07, 0x00, 0x06,
   0x00, 0x00, 0x00, 0x00, 0x00, 0x00, 0x00, 0x00};
