#define ar8_10_3_width 16
#define ar8_10_3_height 16
static char ar8_10_3_bits[] = {
   0x00, 0x00, 0x00, 0x00, 0x00, 0x00, 0x10, 0x00, 0x18, 0x00, 0x1c, 0x00,
   0xfe, 0xff, 0xff, 0xff, 0xfe, 0xff, 0x1c, 0x00, 0x18, 0x00, 0x10, 0x00,
   0x00, 0x00, 0x00, 0x00, 0x00, 0x00, 0x00, 0x00};
