#define ar8_12_9_width 16
#define ar8_12_9_height 16
static char ar8_12_9_bits[] = {
   0x00, 0x00, 0x00, 0x00, 0x40, 0x00, 0x20, 0x00, 0x30, 0x00, 0x18, 0x00,
   0x1c, 0x00, 0xfe, 0xff, 0xff, 0xff, 0xfe, 0xff, 0x1c, 0x00, 0x18, 0x00,
   0x30, 0x00, 0x20, 0x00, 0x40, 0x00, 0x00, 0x00};
