#define arc_width 16
#define arc_height 16
static char arc_bits[] = {
   0x1f, 0x00, 0xe1, 0x00, 0x01, 0x03, 0x01, 0x04, 0x01, 0x08, 0x01, 0x10,
   0x01, 0x20, 0x01, 0x20, 0x01, 0x40, 0x01, 0x40, 0x01, 0x40, 0x01, 0x80,
   0x01, 0x80, 0x01, 0x80, 0x01, 0x80, 0xff, 0xff};
