#define arrowboth_width 43
#define arrowboth_height 13
static char arrowboth_bits[] = {
   0x00, 0x00, 0x00, 0x00, 0x00, 0x00, 0x00, 0x00, 0x00, 0x00, 0x00, 0x00,
   0x00, 0x00, 0x00, 0x00, 0x00, 0x00, 0x00, 0x02, 0x00, 0x00, 0x02, 0x40,
   0x00, 0x03, 0x00, 0x00, 0x06, 0x60, 0x80, 0x03, 0x00, 0x00, 0x0e, 0x70,
   0xc0, 0xff, 0xff, 0xff, 0x1f, 0xf8, 0x80, 0x03, 0x00, 0x00, 0x0e, 0x70,
   0x00, 0x03, 0x00, 0x00, 0x06, 0x60, 0x00, 0x02, 0x00, 0x00, 0x02, 0x40,
   0x00, 0x00, 0x00, 0x00, 0x00, 0x00, 0x00, 0x00, 0x00, 0x00, 0x00, 0x00,
   0x00, 0x00, 0x00, 0x00, 0x00, 0x00};
