#define b3_width 16
#define b3_height 16
static char b3_bits[] = {
   0xf8, 0x1f, 0xfc, 0x3f, 0x6c, 0x33, 0x6c, 0x33, 0x6c, 0x33, 0x6c, 0x33,
   0x6c, 0x33, 0x6c, 0x33, 0xfc, 0x3f, 0xfc, 0x3f, 0xfc, 0x3f, 0xfc, 0x3f,
   0xfc, 0x3f, 0xfc, 0x23, 0xfc, 0x3f, 0xf8, 0x1f};
