#define dir_width 16
#define dir_height 13
static char dir_bits[] = {
   0x00, 0x7e, 0x00, 0x81, 0xff, 0xff, 0x01, 0x80, 0x01, 0x80, 0x01, 0x80,
   0x01, 0x80, 0x01, 0x80, 0x01, 0x80, 0x01, 0x80, 0x01, 0x80, 0x01, 0x80,
   0xff, 0xff};
