#define pat13_width 16
#define pat13_height 16
static char pat13_bits[] = {
   0x02, 0x81, 0x81, 0x40, 0x40, 0x20, 0x20, 0x10, 0x10, 0x08, 0x08, 0x04,
   0x04, 0x02, 0x02, 0x81, 0x81, 0x40, 0x40, 0x20, 0x20, 0x10, 0x10, 0x08,
   0x08, 0x04, 0x04, 0x02, 0x02, 0x81, 0x81, 0x40};
