#define right_arrow_width 16
#define right_arrow_height 16
static char right_arrow_bits[] = {
   0x00, 0x00, 0x00, 0x00, 0x00, 0x00, 0x00, 0x03, 0x00, 0x07, 0x00, 0x0f,
   0xfc, 0x1f, 0xfc, 0x3f, 0xfc, 0x3f, 0xfc, 0x1f, 0x00, 0x0f, 0x00, 0x07,
   0x00, 0x03, 0x00, 0x00, 0x00, 0x00, 0x00, 0x00};
