#define text_width 16
#define text_height 16
static char text_bits[] = {
   0x80, 0x03, 0x80, 0x03, 0x80, 0x06, 0x40, 0x06, 0x40, 0x0c, 0x60, 0x0c,
   0x20, 0x0c, 0x20, 0x18, 0x30, 0x18, 0xf0, 0x1f, 0x10, 0x30, 0x18, 0x30,
   0x08, 0x30, 0x08, 0x60, 0x0c, 0x60, 0x3f, 0xf8};
