#define eyes2_width 256
#define eyes2_height 192
static char eyes2_bits[] = {
 0xff,0xff,0xff,0xff,0xff,0xff,0xff,0xff,0xff,0xff,0xff,0xff,0xff,0xff,0xff,
 0xff,0xff,0xff,0xff,0xff,0xff,0xff,0xff,0xff,0xff,0xff,0xff,0xff,0xff,0xff,
 0xff,0xff,0xff,0xff,0xff,0xff,0xff,0xff,0x5f,0xaf,0xaa,0xfe,0xff,0xff,0xff,
 0xea,0xbb,0xab,0xaa,0xfb,0xff,0xff,0xff,0xff,0xff,0xff,0xff,0xff,0xff,0xff,
 0xff,0xff,0xff,0xff,0xff,0xff,0xff,0xff,0xff,0xff,0x87,0x1e,0x91,0xd7,0xff,
 0xff,0x7f,0x3a,0xa2,0x7b,0x63,0xc3,0xff,0xff,0xff,0xff,0xff,0xff,0xff,0xff,
 0xff,0xff,0xff,0xff,0xff,0xff,0xff,0xff,0xff,0xff,0xff,0xff,0x21,0x03,0xa2,
 0xff,0xff,0xff,0x9f,0x8e,0xe8,0x28,0x0a,0x8e,0xff,0xff,0xff,0xff,0xff,0xff,
 0xff,0xff,0xff,0xff,0xff,0xff,0xff,0xff,0xff,0xff,0xff,0xff,0xff,0xff,0x88,
 0x81,0xe8,0xd5,0xff,0xff,0x0f,0x23,0x72,0x0a,0x26,0xae,0xff,0xff,0xff,0xff,
 0xff,0xff,0xff,0xff,0xff,0xff,0xff,0xff,0xff,0xff,0xff,0xff,0xff,0xff,0xff,
 0x7f,0x62,0x20,0xf2,0xff,0xff,0xff,0xc3,0x81,0x7c,0x88,0x8e,0x18,0xfe,0xff,
 0xff,0xff,0xff,0xff,0xff,0xff,0xff,0xff,0xff,0xff,0xff,0xff,0xff,0xff,0xff,
 0xff,0xff,0x7f,0x38,0x88,0x7d,0xf5,0xff,0xff,0x71,0x20,0x7a,0x0a,0x3e,0x32,
 0xfc,0xff,0xff,0xff,0xff,0xff,0xff,0xff,0xff,0xff,0xff,0xff,0xff,0xff,0xff,
 0xff,0xff,0xff,0xff,0x3f,0x1e,0x22,0xff,0xfb,0xff,0xff,0x38,0x88,0x7e,0x88,
 0xbe,0xe8,0xf8,0xff,0xff,0xff,0xff,0xff,0xff,0xff,0xff,0xff,0xff,0xff,0xff,
 0xff,0xff,0xff,0xff,0xff,0xff,0x9f,0x8e,0xd8,0x5f,0xf5,0xff,0xff,0x1e,0x22,
 0x7f,0x2a,0x7e,0xe2,0xf3,0xff,0xff,0xff,0xff,0xff,0xff,0xff,0xff,0xff,0xff,
 0xff,0xff,0xff,0xff,0xff,0xff,0xff,0xff,0x1f,0x23,0xf6,0xff,0xfe,0xff,0x7f,
 0x8e,0xc8,0x7f,0x88,0xfe,0x88,0xe3,0xff,0xff,0xff,0xff,0xff,0xc1,0xff,0xff,
 0xff,0xff,0xff,0xff,0xff,0xdf,0xfd,0xff,0xff,0xff,0x8f,0x89,0xfc,0x57,0xfd,
 0xff,0x3f,0x22,0xfe,0x7f,0x0a,0xfe,0x23,0xe6,0xff,0xff,0x3f,0x22,0x22,0x28,
 0xc0,0xff,0xff,0xff,0xff,0xff,0xa7,0xef,0xff,0xff,0xff,0xff,0xef,0x60,0xff,
 0xff,0xff,0xff,0xbf,0x88,0xff,0x7f,0x98,0xff,0x9f,0xc8,0xff,0xff,0xff,0x88,
 0x9e,0x80,0x14,0xe0,0xff,0xff,0xff,0xff,0x8f,0xff,0xff,0xff,0xff,0xff,0x2f,
 0xe8,0xff,0x57,0xfd,0xff,0x1f,0xe0,0xff,0x7f,0x12,0xff,0x3f,0x82,0xff,0xff,
 0xff,0x23,0xa2,0x2f,0x22,0x81,0xff,0xff,0xff,0xff,0xbf,0xbb,0xfe,0xff,0xff,
 0xff,0x23,0xf6,0xff,0xbf,0xff,0xff,0x9f,0xf8,0xff,0x7f,0x98,0xff,0xff,0x09,
 0xff,0xff,0xff,0xff,0x88,0xe0,0x88,0x08,0xfe,0xff,0xff,0xff,0xbf,0xdf,0xfd,
 0xff,0xff,0xff,0x8b,0xfd,0xff,0x57,0xff,0xff,0x2f,0xfe,0xff,0x7f,0x12,0xff,
 0xff,0x23,0xfe,0xff,0xff,0xff,0x23,0x02,0x7e,0x22,0xf8,0xff,0xff,0xff,0xff,
 0xbb,0xff,0xff,0xff,0xff,0xa3,0xff,0xff,0xaa,0xff,0xff,0x8f,0xff,0xff,0xff,
 0xa8,0xfe,0xff,0xbf,0xfc,0xff,0xff,0xff,0x8f,0x88,0x80,0x8f,0xf8,0xff,0xff,
 0xff,0xff,0xf5,0xfd,0xff,0xff,0xff,0xe8,0xff,0x7f,0xd4,0xff,0xff,0x23,0xff,
 0xff,0xff,0x61,0xfe,0xff,0x7f,0xfa,0xff,0xff,0xff,0xff,0x27,0x02,0x38,0xfa,
 0xff,0xff,0xff,0xff,0xbb,0xfe,0xff,0xff,0x7f,0xfe,0xff,0x7f,0xaa,0xff,0xff,
 0x8b,0xff,0xff,0xff,0x49,0xfe,0xff,0xff,0xf8,0xff,0xff,0xff,0xff,0xbf,0x08,
 0xe0,0xf8,0xff,0xff,0xff,0xff,0x57,0xff,0xff,0xff,0xff,0xff,0xff,0x3f,0xf5,
 0xff,0xff,0xe3,0xff,0xff,0xff,0x63,0xfe,0xff,0xff,0xe3,0xff,0xff,0xff,0xff,
 0x7f,0x22,0x82,0xf3,0xff,0xff,0xff,0xbf,0xef,0xfe,0xff,0xff,0xff,0xff,0xff,
 0xbf,0xea,0xff,0xff,0xe9,0xff,0xff,0xff,0x4b,0xfc,0xff,0xff,0xcf,0xff,0xff,
 0xff,0xff,0xff,0x8f,0x08,0xfe,0xff,0xff,0xff,0xc8,0xd5,0xff,0xff,0xff,0xff,
 0xff,0xff,0x1f,0xf5,0xff,0xff,0xf2,0xff,0xff,0xff,0x67,0xfe,0xff,0xff,0xbf,
 0xff,0xff,0xff,0xff,0xff,0xff,0x22,0xe2,0xff,0xff,0x1f,0xb2,0xaf,0xfe,0xff,
 0xff,0xff,0xff,0xff,0x8f,0xfa,0xff,0xff,0xf8,0xff,0xff,0xff,0x4f,0xfc,0xff,
 0xff,0xbf,0xff,0xff,0xff,0xff,0xff,0xff,0x89,0xc8,0xff,0xff,0x81,0x9c,0x75,
 0xff,0xff,0xff,0xff,0xff,0xff,0x47,0xfd,0xff,0xff,0xfe,0xff,0xff,0xff,0x2f,
 0xfe,0xff,0xff,0x7f,0xfe,0xff,0xff,0xff,0xff,0xff,0x27,0xfa,0xff,0xff,0x20,
 0x83,0xb9,0xff,0xff,0xff,0xff,0xff,0xff,0xa7,0xfa,0xff,0xff,0xff,0xff,0xff,
 0xff,0x9f,0xfc,0xff,0xff,0xff,0xfc,0xff,0xff,0xff,0xff,0xff,0xff,0xff,0xff,
 0x1f,0xc8,0x81,0xd5,0xff,0xff,0xff,0xff,0xff,0xff,0x53,0xff,0xff,0xff,0xff,
 0xff,0xff,0xff,0xbf,0xfe,0xff,0xff,0xff,0xff,0xff,0xff,0xff,0xff,0xff,0xff,
 0xff,0xff,0x0f,0x32,0xa0,0x2b,0xfe,0xff,0xff,0xff,0xff,0xff,0xab,0xfe,0xff,
 0xff,0xff,0xff,0xff,0xff,0x9f,0xfc,0xff,0xff,0xff,0xff,0xff,0xff,0xff,0xff,
 0xff,0xff,0xff,0xff,0x87,0x1c,0x88,0x95,0xfc,0xff,0xff,0xff,0xff,0xff,0x51,
 0xfd,0xff,0xff,0xff,0xff,0xff,0xff,0xbf,0xfe,0xff,0xff,0xff,0xff,0xff,0xff,
 0xff,0xff,0xff,0xff,0xff,0xff,0x23,0x07,0xa2,0xab,0xf9,0xff,0xff,0xff,0xff,
 0xff,0xa9,0xff,0xff,0xff,0xff,0xff,0xff,0xff,0xbf,0xfc,0xff,0xff,0xff,0xff,
 0xff,0xff,0xff,0xff,0xff,0xff,0xff,0xff,0x89,0x81,0x88,0x91,0xf9,0xff,0xff,
 0xff,0xff,0xff,0x54,0xff,0xff,0xff,0xff,0xff,0xff,0xff,0x7f,0xfe,0xff,0xff,
 0xff,0xff,0xff,0xff,0xff,0xff,0xff,0xff,0xff,0xff,0xe0,0x20,0xe2,0x2b,0xe6,
 0xff,0xff,0xff,0xff,0xff,0xea,0xff,0xff,0xff,0xff,0xff,0xff,0xff,0xff,0xfe,
 0xff,0xff,0xff,0xff,0xff,0xff,0xff,0xff,0xff,0x3f,0x80,0x7f,0x38,0x88,0xf8,
 0x93,0xcc,0xff,0xff,0xff,0xff,0x7f,0xd4,0xff,0xff,0xff,0xff,0xff,0xff,0xff,
 0xff,0xff,0xff,0xff,0xff,0xff,0xff,0xff,0xff,0xff,0x3f,0x00,0x1e,0x3e,0x3a,
 0x22,0xfe,0x2b,0x86,0xff,0xff,0xff,0xff,0x3f,0xea,0xff,0xff,0xff,0xff,0xff,
 0xff,0xff,0xff,0xff,0xff,0xff,0xff,0xff,0xff,0xff,0xff,0xff,0xcf,0xff,0xe1,
 0xbf,0x0c,0x88,0xfe,0xf1,0x88,0xff,0xff,0xff,0xff,0x1f,0xf5,0xff,0xff,0xff,
 0xff,0xff,0xff,0xff,0xff,0xff,0xff,0xff,0xff,0xff,0xff,0xff,0xff,0xff,0x33,
 0x00,0x00,0x3e,0x06,0x22,0xff,0xeb,0x3a,0xfe,0xff,0xff,0xff,0x9f,0xfa,0xff,
 0xff,0xff,0xff,0xff,0xff,0xff,0xff,0xff,0xff,0xff,0xff,0xff,0xff,0xff,0xff,
 0xff,0x18,0x88,0x88,0x88,0x83,0xc8,0xff,0xf9,0xb8,0xfe,0xff,0xff,0xff,0x4f,
 0xf5,0xff,0xff,0xff,0xff,0xff,0xff,0xff,0xff,0xff,0xff,0xff,0xff,0xff,0xff,
 0xff,0xff,0x1f,0x00,0x22,0x22,0xa6,0x23,0xe2,0xff,0xab,0x63,0xfe,0xff,0xff,
 0xff,0xaf,0xfe,0xff,0xff,0xff,0xff,0xff,0xff,0xff,0xff,0xff,0xff,0xff,0xff,
 0xff,0xff,0xff,0xff,0xc7,0x88,0x88,0x88,0xca,0x88,0xf8,0xff,0xf9,0xcb,0xfc,
 0xff,0xff,0xff,0x7f,0xfd,0xff,0xff,0xff,0xff,0xff,0xff,0xff,0xff,0xff,0xff,
 0xff,0xff,0xff,0xff,0xff,0xff,0x33,0x22,0x22,0x7e,0x15,0x22,0xfe,0xff,0xeb,
 0xa7,0xfe,0xff,0xff,0xff,0xfb,0xff,0xff,0xff,0xff,0xff,0xff,0xff,0xff,0xff,
 0xff,0xff,0xff,0xff,0xff,0xff,0xff,0xff,0x89,0x88,0xff,0xef,0xaa,0x88,0xff,
 0xff,0xd9,0x8f,0xf9,0xff,0xff,0xff,0x51,0xff,0xff,0xff,0xff,0xff,0xff,0xff,
 0xff,0xff,0xff,0xff,0xff,0xff,0xff,0xff,0xff,0x7f,0x22,0xff,0xff,0xfb,0x17,
 0xff,0xff,0xff,0xef,0x3f,0xf2,0xff,0xff,0xff,0xa9,0xfe,0xff,0xff,0xff,0xff,
 0xff,0xff,0xff,0xff,0xff,0xff,0xff,0xff,0xff,0xff,0xff,0x8f,0xc8,0xff,0xff,
 0xc8,0x2b,0xfe,0xff,0xff,0xf5,0xbf,0xf4,0xff,0xff,0xff,0x53,0xfd,0xff,0xff,
 0xff,0xff,0xff,0xff,0xff,0xff,0xff,0xff,0xff,0xff,0xff,0xff,0xff,0x23,0xfa,
 0xff,0x3f,0xae,0x5f,0xfc,0xff,0xff,0xef,0x3f,0xe2,0xff,0xff,0xff,0xa9,0xff,
 0xff,0xff,0xff,0xff,0xff,0xff,0xff,0xff,0xff,0xff,0xff,0xff,0xff,0xff,0xff,
 0x89,0xff,0xff,0x8f,0xce,0xaf,0xea,0xff,0xff,0xd7,0xff,0xe6,0xff,0xff,0xff,
 0x54,0xff,0xff,0xff,0xff,0xff,0xff,0xff,0xff,0xff,0xff,0xff,0xff,0xff,0xff,
 0xff,0xff,0xaa,0xff,0xff,0x27,0xa3,0x57,0xc3,0xff,0xff,0xfb,0x7f,0xe6,0xff,
 0xff,0xff,0xaa,0xff,0xff,0xff,0xff,0xff,0xff,0xff,0xff,0xff,0xff,0xff,0xff,
 0xff,0xff,0xff,0x7f,0xfd,0xff,0xff,0x83,0xc9,0xaf,0x8c,0xff,0xff,0xf5,0xff,
 0xcc,0xff,0xff,0xff,0xd4,0xff,0xff,0xff,0xff,0xff,0xff,0xff,0xff,0xff,0xff,
 0xff,0xff,0xff,0xff,0xff,0xff,0xff,0xff,0xff,0xe3,0xa0,0x5f,0x3a,0xfe,0xff,
 0xeb,0xff,0xe6,0xff,0xff,0xff,0xea,0xff,0xff,0xff,0xff,0xff,0xff,0xff,0xff,
 0xff,0xff,0xff,0xff,0xff,0xff,0xff,0xff,0xff,0xff,0xff,0x69,0xc8,0xbf,0x98,
 0xfc,0xff,0xf5,0xff,0xc8,0xff,0xff,0xff,0x54,0xff,0xff,0xff,0xff,0xff,0xff,
 0xff,0xff,0xff,0xff,0xff,0xff,0xff,0xff,0xff,0xff,0xff,0xff,0xff,0x32,0xa2,
 0x57,0x22,0xfa,0xff,0xfb,0xff,0xe2,0xff,0x7f,0xe0,0x2a,0xfe,0xff,0xff,0xff,
 0xff,0xff,0xff,0xff,0xff,0xff,0xff,0xff,0xff,0xff,0xff,0xff,0xff,0xff,0xff,
 0x98,0xc8,0xaf,0xc0,0xf0,0xff,0xf5,0xff,0xc9,0xff,0x8f,0x7c,0xe4,0xfc,0xff,
 0xff,0xff,0xff,0xff,0xff,0xff,0xff,0xff,0xff,0xff,0xff,0xff,0xff,0xff,0xff,
 0xff,0x7f,0x0e,0xe2,0x5f,0xe2,0xe2,0xff,0xfb,0xff,0xe3,0xff,0x21,0x53,0xe2,
 0xfb,0xff,0xff,0xff,0xff,0xff,0xff,0xff,0xff,0xff,0xff,0xff,0xff,0xff,0xff,
 0xff,0xff,0xff,0x3f,0x8c,0xd8,0xbf,0x88,0xc8,0xff,0xff,0xff,0x8f,0x7f,0xc8,
 0x24,0x8d,0xfb,0xff,0xff,0xff,0xff,0xff,0xff,0xff,0xff,0xff,0xff,0xff,0xff,
 0xff,0xff,0xff,0xff,0xff,0x3f,0x06,0xe2,0x5f,0x82,0x92,0xff,0xff,0xff,0xaf,
 0x3f,0x72,0xb2,0x22,0xe6,0xff,0xff,0xff,0xff,0xff,0xff,0xff,0xff,0xff,0xff,
 0xff,0xff,0xff,0xff,0xff,0xff,0xff,0x8f,0x87,0xf8,0xaf,0x08,0x09,0xff,0xd5,
 0xff,0x9f,0x8f,0x18,0x3c,0x85,0xcc,0xff,0xff,0xff,0xff,0xff,0xff,0xff,0xff,
 0xff,0xff,0xff,0xff,0xff,0xff,0xff,0xff,0xff,0x8f,0x23,0xf2,0x5f,0x22,0x22,
 0xfe,0xeb,0xff,0xff,0x27,0x0f,0x9a,0x2e,0x8c,0xff,0xff,0xff,0xff,0xff,0xff,
 0xff,0xff,0xff,0xff,0xff,0xff,0xff,0xff,0xff,0xff,0xff,0xcf,0x88,0xfa,0xbf,
 0x88,0x0e,0xfc,0xd5,0xff,0xff,0xeb,0x81,0x5d,0x9d,0x98,0xff,0xff,0xff,0xff,
 0xff,0xff,0xff,0xff,0xff,0xff,0xff,0xff,0xff,0xff,0xff,0xff,0xff,0x67,0xa0,
 0xfe,0x7f,0x23,0x3c,0xf8,0xfb,0xff,0xff,0x31,0xa2,0x9e,0x3a,0x32,0xff,0xff,
 0xff,0xff,0xff,0xff,0xff,0xff,0xff,0xff,0xff,0xff,0xff,0xff,0xff,0xff,0xff,
 0x33,0x48,0xff,0xbf,0x8b,0xb8,0xf8,0xf5,0xff,0xff,0x18,0x88,0x4f,0xf5,0x40,
 0xfe,0xff,0xff,0xff,0xff,0xff,0xff,0xff,0xff,0xff,0xff,0xff,0xff,0xff,0xff,
 0xff,0xff,0x3b,0xa2,0xff,0x7f,0x27,0x62,0xf2,0xfb,0xff,0x7f,0x0e,0xd2,0xaf,
 0xfa,0x82,0xfc,0xff,0xff,0xff,0xff,0xff,0xff,0xff,0xff,0xff,0xff,0xff,0xff,
 0xff,0xff,0xff,0xff,0x89,0xa8,0xff,0xbf,0x8e,0xc0,0xf8,0xf5,0xff,0xbf,0x8e,
 0xe8,0x4f,0xf5,0x09,0xf9,0xff,0xff,0xff,0xff,0xff,0xff,0xff,0xff,0xff,0xff,
 0xff,0xff,0xff,0xff,0xff,0xff,0x0e,0xea,0xff,0xff,0x3f,0x82,0xe2,0x1b,0xfc,
 0x1f,0x22,0xf6,0xaf,0xfe,0x23,0xfa,0xff,0xff,0xff,0xff,0xff,0xff,0xff,0xff,
 0xff,0xff,0xff,0xff,0xff,0xff,0xff,0xff,0x8c,0xf8,0xff,0xff,0xba,0x88,0xe8,
 0xbd,0xf8,0x9f,0x89,0xfd,0x4f,0xf5,0x9f,0xfc,0xff,0xff,0xff,0xff,0xff,0xff,
 0xff,0xff,0xff,0xff,0xff,0xff,0xff,0xff,0xff,0x7f,0x26,0xfe,0xff,0x7f,0x7d,
 0x02,0xe2,0xfb,0xf2,0x8f,0x22,0xff,0xa7,0xfe,0x7f,0xf2,0xff,0xff,0xff,0xff,
 0xff,0xff,0xff,0xff,0xff,0xff,0xff,0xff,0xff,0xff,0xff,0xff,0x82,0xfe,0xff,
 0xff,0xfb,0x88,0xe8,0x95,0xe3,0xcf,0xd8,0xff,0x57,0xfd,0xff,0xe9,0xff,0xff,
 0xff,0xff,0xff,0xff,0xff,0xff,0xff,0xff,0xff,0xff,0xff,0xff,0xff,0x3f,0xa3,
 0xff,0xff,0xff,0xd5,0x23,0xe2,0x3b,0xc6,0x27,0xf2,0xff,0xa3,0xfe,0xff,0xe7,
 0xff,0xff,0xff,0xff,0xff,0xff,0xff,0xff,0xff,0xff,0xff,0xff,0xff,0xff,0xff,
 0xbf,0xc9,0xff,0xff,0xff,0xea,0x0b,0xee,0x15,0x8c,0x97,0xfc,0xff,0x53,0xff,
 0xff,0x9f,0xff,0xff,0xff,0xff,0xff,0xff,0xff,0xff,0xff,0xff,0xff,0xff,0xff,
 0xff,0xff,0xbf,0xe2,0xff,0xff,0xff,0x55,0x27,0xe0,0x2b,0x38,0x23,0xff,0xff,
 0xa9,0xfe,0xff,0xbf,0xff,0xff,0xff,0xff,0xff,0xff,0xff,0xff,0xff,0xff,0xff,
 0xff,0xff,0xff,0xff,0xbf,0xf8,0xff,0xff,0xff,0xeb,0x0f,0xe8,0x8d,0x38,0xca,
 0xff,0xff,0xd4,0xff,0xff,0xff,0xff,0xff,0xff,0xff,0xff,0xff,0xff,0xff,0xff,
 0xff,0xff,0xff,0xff,0xff,0xff,0xff,0xfa,0xff,0xff,0xff,0xd7,0x3f,0xe2,0x2b,
 0x62,0xe6,0xff,0x7f,0xaa,0xff,0xff,0xff,0xff,0xff,0xff,0xff,0xff,0xff,0xff,
 0xff,0xff,0xff,0xff,0xff,0xff,0xff,0xff,0xff,0xfc,0xff,0xff,0xff,0xab,0xbe,
 0xe8,0x9d,0xc8,0xfc,0xff,0x3f,0xd5,0xff,0xff,0xff,0xff,0xff,0xff,0xff,0xff,
 0xff,0xff,0xff,0xff,0xff,0xff,0xff,0xff,0xff,0xff,0x3f,0xff,0xff,0xff,0xff,
 0x5f,0x7d,0xe2,0x7b,0x82,0xf2,0xff,0xbf,0xaa,0xff,0xff,0xff,0xff,0xff,0xff,
 0xff,0xff,0xff,0xff,0xff,0xff,0xff,0xff,0xff,0xff,0xff,0xff,0xbf,0xff,0xff,
 0xff,0xff,0xab,0xfc,0xc8,0xfd,0x89,0xe9,0xff,0x3f,0xf5,0xff,0xff,0xff,0xff,
 0xff,0xff,0xff,0xff,0xff,0xff,0xff,0xff,0xff,0xff,0xff,0xff,0xff,0xff,0xff,
 0xff,0xff,0xff,0xff,0x57,0xfd,0xe3,0xe3,0x22,0xc3,0xff,0xbf,0xea,0xff,0xff,
 0xff,0xff,0xff,0xff,0xff,0xff,0xff,0xff,0xff,0xff,0xff,0xff,0xff,0xff,0xff,
 0xff,0xff,0xff,0xff,0xff,0xff,0xaf,0xf8,0xcb,0xc9,0x05,0x8e,0xff,0x3f,0xd5,
 0xff,0xff,0xff,0xff,0xff,0xff,0xff,0xff,0xff,0xff,0xff,0xff,0xff,0xff,0xff,
 0xff,0xff,0xff,0xff,0xff,0xff,0xff,0xff,0x5f,0xfd,0xe7,0xbb,0x2b,0x26,0xff,
 0xbf,0xea,0xff,0xff,0xff,0xff,0xff,0xff,0xff,0xff,0xff,0xff,0xff,0xff,0xff,
 0xff,0xff,0xff,0xff,0xff,0xff,0xff,0xff,0xff,0xff,0xbf,0xf8,0xcf,0xb9,0x9f,
 0x98,0xff,0x1f,0xf5,0xff,0xff,0xff,0xff,0xff,0xff,0xff,0xff,0xff,0xff,0xff,
 0xff,0xff,0xff,0xff,0xff,0xff,0xff,0xff,0xff,0xff,0xff,0xff,0x57,0xf9,0xbf,
 0x63,0x7e,0x62,0xfe,0x9f,0xfa,0xff,0xff,0xff,0xff,0xff,0xff,0xff,0xff,0xff,
 0xff,0xff,0xff,0xff,0xff,0xff,0xff,0xff,0xff,0xff,0xff,0xff,0xff,0xff,0xaf,
 0xfa,0xbf,0xc1,0xfc,0x88,0xfd,0x4f,0xf5,0xff,0xff,0xff,0xff,0xff,0xff,0xff,
 0xff,0xff,0xff,0xff,0xff,0xff,0xff,0xff,0xff,0xff,0xff,0xff,0xff,0xff,0xff,
 0xff,0x5f,0xf9,0xff,0x83,0xfb,0x22,0xfb,0xaf,0xfa,0xff,0xff,0xff,0xff,0xff,
 0xff,0xff,0xff,0xff,0xff,0xff,0xff,0xff,0xff,0xff,0xff,0xff,0xff,0xff,0xff,
 0xff,0xff,0xff,0xaf,0xfa,0xff,0x89,0xfb,0x8f,0xfe,0x4f,0xf5,0xff,0xff,0xff,
 0xff,0xff,0xff,0xff,0xff,0xff,0xff,0xff,0xff,0xff,0xff,0xff,0xff,0xff,0xff,
 0xff,0xff,0xff,0xff,0xff,0x7f,0xf1,0xff,0x23,0xf6,0x7f,0xee,0xaf,0xfa,0xff,
 0xff,0xff,0xff,0xff,0xff,0xff,0xff,0xff,0xff,0xff,0xff,0xff,0xff,0xff,0xff,
 0xff,0xff,0xff,0xff,0x01,0x80,0xfb,0xbf,0xf2,0xff,0x0b,0xfc,0xff,0xb8,0x4f,
 0xf7,0xff,0xff,0xff,0xff,0xff,0xff,0xff,0xff,0xff,0xff,0xff,0xff,0xff,0xff,
 0xff,0xff,0xff,0xff,0xff,0x7f,0x22,0x3e,0xfa,0x5f,0xf5,0xff,0x27,0xfe,0xff,
 0x63,0xa7,0xfe,0xff,0xff,0xff,0xff,0xff,0xff,0xff,0xff,0xff,0xff,0xff,0xff,
 0xff,0xff,0xff,0xff,0xff,0xff,0xff,0x1f,0xc8,0x81,0xf8,0xaf,0xe2,0xff,0x8f,
 0xf8,0xff,0xc9,0x56,0xfd,0xff,0xff,0xff,0xff,0xff,0xff,0xff,0xff,0xff,0xff,
 0xff,0xff,0xff,0xff,0xff,0xff,0xff,0xff,0xff,0x07,0x72,0x20,0xfa,0x7f,0xe5,
 0xff,0x3f,0xf2,0xff,0xaf,0xaf,0xf2,0xff,0xff,0xff,0xff,0xff,0xff,0xff,0xff,
 0xff,0xff,0xff,0xff,0xff,0xff,0xff,0xff,0xff,0xff,0xff,0x81,0x0e,0x88,0xfc,
 0xff,0xca,0xff,0xff,0xf9,0xff,0x9f,0x53,0xe8,0xff,0xff,0xff,0xff,0xff,0xff,
 0xff,0xff,0xff,0xff,0xff,0xff,0xff,0xff,0xff,0xff,0xff,0xff,0x7f,0xa0,0x03,
 0x22,0xfe,0x5f,0xd5,0xff,0xff,0xf3,0xff,0x7f,0xa6,0xe6,0xff,0xff,0xff,0xff,
 0xff,0xff,0xff,0xff,0xff,0xff,0xff,0xff,0xff,0xff,0xff,0xff,0xff,0xff,0x1f,
 0xe8,0x80,0x88,0x8f,0xff,0xca,0xff,0xff,0xd9,0xff,0xff,0xd9,0x98,0xff,0xff,
 0xff,0xff,0xff,0xff,0xff,0xff,0xff,0xff,0xff,0xff,0xff,0xff,0xff,0xff,0xff,
 0xff,0x0f,0x3a,0x20,0xe2,0x63,0x7e,0xd5,0xff,0xff,0xe3,0xff,0xff,0xa7,0x32,
 0xff,0xff,0xff,0xff,0xff,0xff,0xff,0xff,0xff,0xff,0xff,0xff,0xff,0xff,0xff,
 0xff,0xff,0xff,0x87,0x0e,0x88,0xe8,0xb9,0xfc,0x8b,0xff,0xff,0xef,0xff,0xff,
 0xff,0xe8,0xfe,0xff,0xff,0xff,0xff,0xff,0xff,0xff,0xff,0xff,0xff,0xff,0xff,
 0xff,0xff,0xff,0xff,0xff,0x23,0x03,0x26,0xfa,0x30,0x7e,0x95,0xff,0xff,0xef,
 0xff,0xff,0x3f,0xe2,0xfe,0xff,0xff,0xff,0xff,0xff,0xff,0xff,0xff,0xff,0xff,
 0xff,0xff,0xff,0xff,0xff,0xff,0xff,0xc9,0x80,0x88,0x7c,0x88,0xfe,0xaa,0xff,
 0xff,0x8f,0xff,0xff,0x7c,0x88,0xfc,0xff,0xff,0xff,0xff,0xff,0xff,0xff,0xff,
 0xff,0xff,0xff,0xff,0xff,0xff,0xff,0xff,0xff,0x20,0x22,0xa2,0x3f,0x06,0xfe,
 0x15,0xff,0xff,0x3f,0xff,0x7f,0xea,0x22,0xfb,0xff,0xff,0xff,0xff,0xff,0xff,
 0xff,0xff,0xff,0xff,0xff,0xff,0xff,0xff,0xff,0xff,0x3f,0x98,0x88,0xf8,0x9f,
 0x87,0xfe,0x2a,0xff,0xff,0xbf,0xff,0x7f,0xf5,0x0b,0xf9,0xff,0xff,0xff,0xff,
 0xff,0xff,0xff,0xff,0xff,0xff,0xff,0xff,0xff,0xff,0xff,0xff,0x1f,0x02,0xa2,
 0xff,0x2f,0x22,0xfe,0x57,0xff,0xff,0x7f,0xfe,0x7f,0xea,0x27,0xec,0xff,0xff,
 0xff,0xff,0xff,0xff,0xff,0xff,0xff,0xff,0xff,0xff,0xff,0xff,0xff,0xff,0x8f,
 0x80,0xf8,0xff,0x87,0x82,0xff,0x2b,0xfe,0xff,0xff,0xfe,0x3f,0xf5,0x8f,0xd8,
 0xff,0xff,0xff,0xff,0xff,0xff,0xff,0xff,0xff,0xff,0xff,0xff,0xff,0xff,0xff,
 0xff,0x27,0x20,0xfe,0xff,0x27,0xa1,0xff,0x55,0xff,0xff,0xff,0xfe,0xbf,0xea,
 0x3f,0xb2,0xff,0xff,0xff,0xff,0xff,0xff,0xff,0xff,0xff,0xff,0xff,0xff,0xff,
 0xff,0xff,0xff,0x83,0x88,0xff,0xff,0x83,0xc9,0xff,0x2f,0xfe,0xff,0xff,0xfe,
 0x1f,0xfd,0xff,0x88,0xff,0xff,0xff,0xff,0xff,0xff,0xff,0xff,0xff,0xff,0xff,
 0xff,0xff,0xff,0xff,0xff,0x21,0xf2,0xff,0xff,0xa3,0xe0,0xff,0x57,0xf8,0xff,
 0xff,0xfe,0x8f,0xfa,0xff,0x23,0xff,0xff,0xff,0xff,0xff,0xff,0xff,0xff,0xff,
 0xff,0xff,0xff,0xff,0xff,0xff,0xff,0x89,0xfc,0xff,0xff,0xc9,0xe8,0xff,0xbf,
 0xfa,0xff,0xff,0xff,0x4f,0xf5,0xff,0x8f,0xff,0xff,0xff,0xff,0xff,0xff,0xff,
 0xff,0xff,0xff,0xff,0xff,0xff,0xff,0xff,0xff,0x22,0xff,0xff,0xff,0x60,0xf2,
 0xff,0xff,0xff,0xff,0xff,0xff,0xa7,0xfe,0xff,0x3f,0xfe,0xff,0xff,0xff,0xff,
 0xff,0xff,0xff,0xff,0xff,0xff,0xff,0xff,0xff,0xff,0xff,0x88,0xff,0xff,0xff,
 0x28,0xf8,0xff,0x07,0xe0,0xff,0xff,0xff,0x58,0xfd,0xff,0xff,0xfc,0xff,0xff,
 0xff,0xff,0xff,0xff,0xff,0xff,0xff,0xff,0xff,0xff,0xff,0xff,0xff,0xff,0xff,
 0xff,0x7f,0x32,0xfa,0xff,0x57,0x85,0xff,0xff,0xff,0xe2,0xfe,0xff,0xff,0xfa,
 0xff,0xff,0xff,0xff,0xff,0xff,0xff,0xff,0xff,0xff,0xff,0xff,0xff,0xff,0xff,
 0xff,0xff,0xff,0x3f,0x98,0xfc,0xff,0xaf,0xaa,0xff,0xff,0xff,0xc4,0xfd,0xff,
 0xff,0xf9,0xff,0xff,0xff,0xff,0xff,0xff,0xff,0xff,0xff,0xff,0xff,0xff,0xff,
 0xff,0xff,0xff,0xff,0xff,0x3f,0x0a,0xfe,0xff,0x57,0x95,0xff,0xff,0xff,0x09,
 0xff,0xff,0xff,0xf3,0xff,0xff,0xff,0xff,0xff,0xff,0xff,0xff,0xff,0xff,0xff,
 0xff,0xff,0xff,0xff,0xff,0xff,0xff,0xbf,0x84,0xfe,0xff,0xbf,0x8a,0xff,0xff,
 0xff,0x15,0xf8,0xff,0xff,0xef,0xff,0xff,0xff,0xff,0xff,0xff,0xff,0xff,0xff,
 0xff,0xff,0xff,0xff,0xff,0xff,0xff,0xff,0xff,0x1f,0x26,0xff,0xff,0xff,0xd7,
 0xff,0xff,0xff,0xa8,0xfa,0xff,0xff,0xff,0xff,0xff,0xff,0xff,0xff,0xff,0xff,
 0xff,0xff,0xff,0xff,0xff,0xff,0xff,0xff,0xff,0xff,0xff,0x9f,0x80,0xff,0xff,
 0xff,0xca,0xff,0xff,0xff,0x54,0xfd,0xff,0xff,0xff,0xff,0xff,0xff,0xff,0xff,
 0xff,0xff,0xff,0xff,0xff,0xff,0xff,0xff,0xff,0xff,0xff,0xff,0xff,0x1f,0xa2,
 0xff,0xff,0xff,0xd5,0xff,0xff,0xff,0xa8,0xff,0xff,0xff,0xff,0xff,0xff,0xff,
 0xff,0xff,0xff,0xff,0xff,0xff,0xff,0xff,0xff,0xff,0xff,0xff,0xff,0xff,0xff,
 0x9f,0x88,0xff,0xff,0xff,0x8a,0xff,0xff,0xff,0x54,0xff,0xff,0xff,0xff,0xff,
 0xff,0xff,0xff,0xff,0xff,0xff,0xff,0xff,0xff,0xff,0xff,0xff,0xff,0xff,0xff,
 0xff,0xff,0x0f,0xe0,0xff,0xff,0x7f,0x95,0xff,0xff,0x7f,0xaa,0xff,0xff,0xff,
 0xff,0xff,0xff,0xff,0xff,0xff,0xff,0xff,0xff,0xff,0xff,0xff,0xff,0xff,0xff,
 0xff,0xff,0xff,0xff,0x8f,0xe8,0xff,0xff,0xff,0xab,0xff,0xff,0x7f,0xd5,0xff,
 0xff,0xff,0xff,0xff,0xff,0xff,0xff,0xff,0xff,0xff,0xff,0xff,0xff,0xff,0xff,
 0xff,0xff,0xff,0xff,0xff,0xff,0xaf,0xf2,0xff,0xff,0xff,0x95,0xff,0xff,0x7f,
 0xaa,0xff,0xff,0xff,0xff,0xff,0xff,0xff,0xff,0xff,0xff,0xff,0xff,0xff,0xff,
 0xff,0xff,0xff,0xff,0xff,0xff,0xff,0xff,0x8f,0xf8,0xff,0xff,0xff,0xaa,0xff,
 0xff,0x3f,0xd5,0xff,0xff,0xff,0xff,0xff,0xff,0xff,0xff,0xff,0xff,0xff,0xff,
 0xff,0xff,0xff,0xff,0xff,0xff,0xff,0xff,0xff,0xff,0x27,0xfe,0xff,0xff,0xff,
 0xd7,0xff,0xff,0xbf,0xea,0xff,0xff,0xff,0xff,0xff,0xff,0xff,0xff,0xff,0xff,
 0xff,0xff,0xff,0xff,0xff,0xff,0xff,0xff,0xff,0xff,0xff,0xff,0x8b,0xfe,0xff,
 0xff,0xff,0xab,0xff,0xff,0x1f,0xd5,0xff,0xff,0xff,0xff,0xff,0xff,0xff,0xff,
 0xff,0xff,0xff,0xff,0xff,0xff,0xff,0xff,0xff,0xff,0xff,0xff,0xff,0xff,0x23,
 0xff,0xff,0xff,0xff,0xd5,0xff,0xff,0x9f,0xfa,0xff,0xff,0xff,0xff,0xff,0xff,
 0xff,0xff,0xff,0xff,0xff,0xff,0xff,0xff,0xff,0xff,0xff,0xff,0xff,0xff,0xff,
 0xff,0x89,0xff,0xff,0xff,0xff,0xaf,0xff,0xff,0x4f,0xf5,0xff,0xff,0xff,0xff,
 0xff,0xff,0xff,0xff,0xff,0xff,0xff,0xff,0xff,0xff,0xff,0xff,0xff,0xff,0xff,
 0xff,0xff,0xff,0xa3,0xff,0xff,0xff,0xff,0xd7,0xff,0xff,0xaf,0xfa,0xff,0xff,
 0xff,0xff,0xff,0xff,0xff,0xff,0xff,0xff,0xff,0xff,0xff,0xff,0xff,0xff,0xff,
 0xff,0xff,0xff,0xff,0xff,0xc8,0xff,0xff,0xff,0xff,0xbf,0xff,0xff,0x47,0xf5,
 0xff,0xff,0x8f,0xff,0xff,0xff,0xff,0xff,0xff,0xff,0xff,0xff,0xff,0xff,0xff,
 0xff,0xff,0xff,0xff,0xff,0xff,0xff,0xe2,0xff,0xff,0xff,0xff,0xdf,0xff,0xff,
 0xa7,0xfe,0xff,0x7f,0xe2,0xff,0xff,0xff,0xff,0xff,0xff,0xff,0xff,0xff,0xff,
 0xff,0xff,0xff,0xff,0xff,0xff,0xff,0xff,0xff,0xf8,0xff,0xff,0xff,0xff,0xff,
 0xff,0xff,0x53,0xfd,0xff,0x8b,0xf8,0xff,0xff,0xff,0xff,0xff,0xff,0xff,0xff,
 0xff,0xff,0xff,0xff,0xff,0xff,0xff,0xff,0xff,0xff,0x7f,0xfa,0xff,0xff,0xff,
 0xff,0xff,0xff,0xff,0xab,0xfe,0xff,0x20,0xfa,0xff,0xff,0xff,0xff,0xff,0xff,
 0xff,0xff,0xff,0xff,0xff,0xff,0xff,0xff,0xff,0xff,0xff,0xff,0xff,0xfc,0xff,
 0xff,0xff,0xff,0xbf,0xff,0xff,0x51,0xfd,0x1f,0x8c,0xfe,0xff,0xff,0xff,0xff,
 0xff,0xff,0xff,0xff,0xff,0xff,0xff,0xff,0xff,0xff,0xff,0xff,0xff,0xff,0x7f,
 0xfe,0xff,0xff,0xff,0xff,0xff,0xff,0xff,0xa9,0xfe,0x23,0xa7,0xff,0xff,0xff,
 0xff,0xff,0xff,0xff,0xff,0xff,0xff,0xff,0xff,0xff,0xff,0xff,0xff,0xff,0xff,
 0xff,0xff,0xff,0xff,0xff,0xff,0xff,0xff,0xff,0xff,0x55,0xff,0xc9,0xe9,0xff,
 0xff,0xff,0xff,0xff,0xff,0xff,0xff,0xff,0xff,0xff,0xff,0xff,0xff,0xff,0xff,
 0xff,0xff,0xff,0xff,0xff,0xff,0xff,0xff,0xff,0xff,0xff,0xff,0xa8,0xfe,0x72,
 0xf2,0xff,0xff,0xff,0xff,0xff,0xff,0xff,0xff,0xff,0xff,0xff,0xff,0xff,0xff,
 0xff,0xff,0xff,0xff,0xff,0xff,0xff,0xff,0xff,0xff,0xff,0xff,0xff,0xff,0xd4,
 0x3f,0x9c,0xf8,0xff,0xff,0xff,0xff,0xff,0xff,0xff,0xff,0xff,0xff,0xff,0xff,
 0xff,0xff,0xff,0xff,0xff,0xff,0xff,0xff,0xff,0xff,0xff,0xff,0xff,0xff,0xff,
 0xff,0xaa,0x1f,0x06,0xfe,0xff,0xff,0xff,0xff,0xff,0xff,0xff,0xff,0xff,0xff,
 0xff,0xff,0xff,0xff,0xff,0xff,0xff,0xff,0xff,0xff,0xff,0xff,0xff,0xff,0xff,
 0xff,0xff,0xff,0x54,0x8f,0x83,0xfe,0xff,0xff,0xff,0xff,0xff,0xff,0xff,0xff,
 0xff,0xff,0xff,0xff,0xff,0xff,0xff,0xff,0xff,0xff,0xff,0xff,0xff,0xff,0xff,
 0xff,0xff,0xff,0xff,0xff,0xaa,0xe7,0x20,0xff,0xff,0xff,0xff,0xff,0xff,0xff,
 0xff,0xff,0xff,0xff,0xff,0xff,0xff,0xff,0xff,0xff,0xff,0xff,0xff,0xff,0xff,
 0xff,0xff,0xff,0xff,0xff,0xff,0xff,0x54,0x63,0x88,0xff,0xff,0xff,0xff,0xff,
 0xff,0xff,0xff,0xff,0xff,0xff,0xff,0xff,0xff,0xff,0xff,0xff,0xff,0xff,0xff,
 0xff,0xff,0xff,0xff,0xff,0xff,0xff,0xff,0xff,0xaa,0x23,0xe2,0xff,0xff,0xff,
 0xff,0xff,0xff,0xff,0xff,0xff,0xff,0xff,0xff,0xff,0xff,0xff,0xff,0xff,0xff,
 0xff,0xff,0xff,0xff,0xff,0xff,0xff,0xff,0xff,0xff,0xff,0x54,0x9b,0xe8,0xff,
 0xff,0xff,0xff,0xff,0xff,0xff,0xff,0xff,0xff,0xff,0xff,0xff,0xff,0xff,0xff,
 0xff,0xff,0xff,0xff,0xff,0xff,0xff,0xff,0xff,0xff,0xff,0xff,0xff,0xaa,0x2f,
 0xf2,0xff,0xff,0xff,0xfc,0xff,0xff,0xff,0xff,0xff,0xff,0xff,0xff,0xff,0xff,
 0xff,0xff,0xff,0xff,0xff,0xff,0xff,0xff,0xff,0xff,0xff,0xff,0xff,0xff,0x7f,
 0xd5,0x8c,0xfe,0xff,0xff,0xff,0xe0,0xff,0xff,0xff,0xff,0xff,0xff,0xff,0x3f,
 0xff,0xff,0xff,0xff,0xff,0xff,0xff,0xff,0xff,0xff,0xff,0xff,0xff,0xff,0xff,
 0xff,0x7f,0xaa,0xa3,0xff,0xff,0xff,0xff,0xc0,0xfb,0xff,0xff,0xff,0xff,0xff,
 0xff,0x03,0xff,0xff,0xff,0xff,0xff,0xff,0xff,0xff,0xff,0xff,0xff,0xff,0xff,
 0xff,0xff,0xff,0x3f,0xd5,0xff,0xff,0xff,0xff,0xff,0xc0,0xf1,0xff,0xff,0xff,
 0xff,0xff,0xff,0x00,0xff,0xff,0xff,0xff,0xff,0xff,0xff,0xff,0xff,0xff,0xff,
 0xff,0xff,0xff,0xff,0xff,0xbf,0x2a,0xf2,0xff,0xff,0xff,0xff,0xc0,0xf1,0xff,
 0xff,0xff,0xff,0xff,0xff,0x01,0xff,0xff,0xff,0xff,0xff,0xff,0xff,0xff,0xff,
 0xff,0xff,0xff,0xff,0xff,0xff,0xff,0x6b,0xd5,0xe8,0xff,0xff,0xff,0xff,0xc0,
 0xf1,0xff,0xff,0xff,0xff,0xff,0xff,0x01,0xff,0xff,0xff,0xff,0xff,0xff,0xff,
 0xff,0xff,0xff,0xff,0xff,0xff,0xff,0xff,0xff,0xa0,0x22,0xe3,0xff,0xff,0xff,
 0xff,0xc0,0xf1,0xff,0xff,0xff,0xff,0xff,0xff,0x01,0xff,0xff,0xff,0xff,0xff,
 0xff,0xff,0xff,0xff,0xff,0xff,0xff,0xff,0xff,0xff,0x7f,0x58,0x89,0x8e,0xff,
 0xff,0xff,0xff,0xc0,0xf3,0xff,0xff,0xff,0xff,0xff,0xfc,0x01,0xff,0xff,0xff,
 0xff,0xff,0xff,0xff,0xff,0xff,0xff,0xff,0xff,0xff,0xff,0xff,0x3f,0xa6,0x22,
 0x3a,0xff,0xff,0xff,0xff,0xc0,0xff,0xff,0xff,0xff,0xff,0x7f,0xfc,0x01,0xff,
 0xff,0xff,0xff,0xff,0xff,0xff,0xff,0xff,0xff,0xff,0xff,0xff,0xff,0xff,0x9f,
 0x4a,0x8d,0xe8,0xfe,0xff,0xff,0xff,0xc0,0xff,0xfb,0xff,0xff,0xff,0x7f,0xfc,
 0x01,0xff,0xff,0xff,0xff,0xff,0xff,0xff,0xff,0xff,0xff,0xff,0xff,0xff,0xff,
 0xff,0x0f,0xb3,0x2a,0x62,0xfe,0xff,0xff,0xff,0xc0,0xff,0xf3,0xff,0xff,0xff,
 0x6f,0xfc,0x01,0xff,0xff,0xff,0xff,0xff,0xff,0xff,0xff,0xff,0xff,0xff,0xff,
 0xff,0xff,0xff,0x87,0x41,0xf5,0x89,0xfc,0xff,0xff,0xff,0xc0,0xff,0xe3,0xff,
 0xff,0xff,0x67,0xfc,0x80,0xff,0xff,0xff,0xff,0xff,0xff,0xff,0xff,0xff,0xff,
 0xff,0xff,0xff,0xff,0xff,0xa7,0xa0,0x2a,0x26,0xe3,0xff,0xff,0xff,0xc1,0xff,
 0xc3,0xff,0xff,0xff,0xe3,0xff,0x80,0xff,0xff,0xff,0xff,0xff,0xff,0xff,0xff,
 0xff,0xff,0xff,0xff,0xff,0xff,0xff,0xcb,0x58,0xf8,0xb8,0xcc,0xff,0xff,0xff,
 0x81,0xff,0x83,0xff,0xff,0xff,0xe1,0xff,0xc0,0xff,0xff,0xff,0xff,0xff,0xff,
 0xff,0xff,0xff,0xff,0xff,0xff,0xff,0xff,0xff,0x61,0x2a,0xe2,0x62,0xba,0xff,
 0xff,0xff,0x83,0xff,0x83,0xff,0xff,0xff,0xe1,0xff,0xc0,0xff,0xff,0xff,0xff,
 0xff,0xff,0xff,0xff,0xff,0xff,0xff,0xff,0xff,0xff,0xff,0x29,0x50,0x88,0xe9,
 0xe8,0xff,0xff,0xff,0x83,0xff,0x01,0xff,0xff,0xff,0xe0,0xff,0xe0,0xff,0xff,
 0xff,0xff,0xff,0xff,0xff,0xff,0xff,0xff,0xff,0xff,0xff,0xff,0xff,0x31,0xea,
 0x22,0xe3,0xe3,0xfe,0xff,0xff,0x07,0xff,0x01,0xfe,0xff,0x7f,0xe0,0xff,0xf0,
 0xff,0xff,0xff,0xff,0xff,0xff,0xff,0xff,0xff,0xff,0xff,0xff,0xff,0xff,0xff,
 0x99,0xd8,0x89,0xfa,0x8b,0xfd,0xff,0xff,0x0f,0xff,0x01,0xff,0xff,0x7f,0xe0,
 0x7f,0xf8,0xff,0xff,0xff,0xff,0xff,0xff,0xff,0xff,0xff,0xff,0xff,0xff,0xff,
 0xff,0xff,0x0b,0xaa,0x23,0xe6,0x27,0xf2,0xff,0xff,0x1f,0xfe,0x80,0xff,0xff,
 0xff,0xc0,0x3f,0xf8,0xff,0xff,0xff,0xff,0xff,0xff,0xff,0xff,0xff,0xff,0xff,
 0xff,0xff,0xff,0xff,0x8d,0xdc,0xbf,0xcc,0x8f,0xc8,0xff,0xff,0x3f,0x7c,0xc0,
 0xff,0xff,0xff,0x81,0x1f,0xfc,0xff,0xff,0xff,0xff,0xff,0xff,0xff,0xff,0xff,
 0xff,0xff,0xff,0xff,0xff,0xff,0x27,0xae,0x7f,0xae,0x3f,0xa2,0xff,0xff,0x7f,
 0x00,0xe0,0xff,0xff,0xff,0x03,0x00,0xfe,0xff,0xff,0xff,0xff,0xff,0xff,0xff,
 0xff,0xff,0xff,0xff,0xff,0xff,0xff,0xff,0x83,0x56,0xff,0x88,0xff,0x98,0xfc,
 0xff,0xff,0x01,0xfc,0xff,0xff,0xff,0x07,0x80,0xff,0xff,0xff,0xff,0xff,0xff,
 0xff,0xff,0xff,0xff,0xff,0xff,0xff,0xff,0xff,0xff,0x23,0xef,0x7f,0xb2,0xff,
 0x23,0xfa,0xff,0xff,0xff,0xff,0xff,0xff,0xff,0x1f,0xe0,0xff,0xff,0xff,0xff,
 0xff,0xff,0xff,0xff,0xff,0xff,0xff,0xff,0xff,0xff,0xff,0xff,0x89,0xd7,0xff,
 0x98,0xff,0x8f,0xf8,0xff,0xff,0xff,0xff,0xff,0xff,0xff,0xff,0xff,0xff,0xff,
 0xff,0xff,0xff,0xff,0xff,0xff,0xff,0xff,0xff,0xff,0xff,0xff,0xff,0xff,0xa1,
 0xab,0xff,0x33,0xff,0x7f,0xea,0xff,0xff,0xff,0xff,0xff,0xff,0xff,0xff,0xff,
 0xff,0xff,0xff,0xff,0xff,0xff,0xff,0xff,0xff,0xff,0xff,0xff,0xff,0xff,0xff,
 0xff,0xf9,0xd5,0xff,0xab,0xff,0xff,0x99,0xff,0xff,0xff,0xff,0xff,0xff,0xff,
 0xff,0xff,0xff,0xff,0xff,0xff,0xff,0xff,0xff,0xff,0xff,0xff,0xff,0xff,0xff,
 0xff,0xff,0xff,0xfb,0xea,0xff,0x63,0xfe,0xff,0x27,0xfe,0xff,0xff,0xff,0xff,
 0xff,0xff,0xff,0xff,0xff,0xff,0xff,0xff,0xff,0xff,0xff,0xff,0xff,0xff,0xff,
 0xff,0xff,0xff,0xff,0xff,0x5d,0xd5,0xff,0x8b,0xff,0xff,0xbf,0xfc,0xff,0xff,
 0xff,0xff,0xff,0xff,0xff,0xff,0xff,0xff,0xff,0xff,0xff,0xff,0xff,0xff,0xff,
 0xff,0xff,0xff,0xff,0xff,0xff,0xff,0xbf,0xfa,0xff,0x27,0xff,0xff,0xff,0xfa,
 0xff,0xff,0xff,0xff,0xff,0xff,0xff,0xff,0xff,0xff,0xff,0xff,0xff,0xff,0xff,
 0xff,0xff,0xff,0xff,0xff,0xff,0xff,0xff,0xff,0x5f,0xf5,0xff,0x8f,0xff,0xff,
 0xff,0xfb,0xff,0xff,0xff,0xff,0xff,0xff,0xff,0xff,0xff,0xff,0xff,0xff,0xff,
 0xff,0xff,0xff,0xff,0xff,0xff,0xff,0xff,0xff,0xff,0xff,0xaf,0xfa,0xff,0x3f,
 0xfa,0xff,0xff,0xff,0xff,0xff,0xff,0xff,0xff,0xff,0xff,0xff,0xff,0xff,0xff,
 0xff,0xff,0xff,0xff,0xff,0xff,0xff,0xff,0xff,0xff,0xff,0xff,0xff,0x4f,0xf5,
 0xff,0xbf,0xfc,0xff,0xff,0xff,0xff,0xff,0xff,0xff,0xff,0xff,0xff,0xff,0xff,
 0xff,0xff,0xff,0xff,0xff,0xff,0xff,0xff,0xff,0xff,0xff,0xff,0xff,0xff,0xff,
 0xa7,0xfe,0xff,0x7f,0xfa,0xff,0xff,0xff,0xff,0xff,0xff,0xff,0xff,0xff,0xff,
 0xff,0xff,0xff,0xff,0xff,0xff,0xff,0xff,0xff,0xff,0xff,0xff,0xff,0xff,0xff,
 0xff,0xff,0x57,0xfd,0xff,0xff,0xe8,0xff,0xff,0xff,0xff,0xff,0xff,0xff,0xff,
 0xff,0xff,0xff,0xff,0xff,0xff,0xff,0xff,0xff,0xff,0xff,0xff,0xff,0xff,0xff,
 0xff,0xff,0xff,0xff,0xa3,0xfa,0xff,0xff,0xe3,0xff,0xff,0xff,0xff,0xff,0xff,
 0xff,0xff,0xff,0xff,0xff,0xff,0xff,0xff,0xff,0xff,0xff,0xff,0xff,0xff,0xff,
 0xff,0xff,0xff,0xff,0xff,0xff,0x53,0xfd,0xff,0xff,0xc9,0xff,0xff,0xff,0xff,
 0xff,0xff,0xff,0xff,0xff,0xff,0xff,0xff,0xff,0xff,0xff,0xff,0xff,0xff,0xff,
 0xff,0xff,0xff,0xff,0xff,0xff,0xff,0xff,0xab,0xfe,0xff,0xff,0xe3,0xff,0xff,
 0xff,0xff,0xff,0xff,0xff,0xff,0xff,0xff,0xff,0xff,0xff,0xff,0xff,0xff,0xff,
 0xff,0xff,0xff,0xff,0xff,0xff,0xff,0xff,0xff,0x9f,0x57,0xfd,0xff,0xff,0x8f,
 0xff,0xff,0xff,0xff,0xff,0xff,0xff,0xff,0xff,0xff,0xff,0xff,0xff,0xff,0xff,
 0xff,0xff,0xff,0xff,0xff,0xff,0xff,0xff,0xff,0xff,0xff,0x87,0xff,0xff,0xff,
 0xff,0xff,0xff,0xff,0xff,0xff,0xff,0xff,0xff,0xff,0xff,0xff,0xff,0xff,0xff,
 0xff,0xff,0xff,0xff,0xff,0xff,0xff,0xff,0xff,0xff,0xff,0xff,0xff,0xe3,0xfd,
 0xff,0xff,0xff,0xff,0xff,0xff,0xff,0xff,0xff,0xff,0xff,0xff,0xff,0xff,0xff,
 0xff,0xff,0xff,0xff,0xff,0xff,0xff,0xff,0xff,0xff,0xff,0xff,0xff,0xff,0xff,
 0xe8,0x01,0xf8,0xff,0xff,0xff,0xff,0xff,0xff,0xff,0xff,0xff,0xff,0xff,0xff,
 0xff,0xff,0xff,0xff,0xff,0xff,0xff,0xff,0xff,0xff,0xff,0xff,0xff,0xff,0xff,
 0xff,0x7f,0xb2,0x55,0xfd,0xff,0xff,0xff,0xff,0xff,0xff,0xff,0xff,0xff,0xff,
 0xff,0xff,0xff,0xff,0xff,0xff,0xff,0xff,0xff,0xff,0xff,0xff,0xff,0xff,0xff,
 0xff,0xff,0xff,0x3f,0x98,0xab,0xff,0xff,0xff,0xff,0xff,0xff,0xff,0xff,0xff,
 0xff,0xff,0xff,0xff,0xff,0xff,0xff,0xff,0xff,0xff,0xff,0xff,0xff,0xff,0xff,
 0xff,0xff,0xff,0xff,0xff,0x1f,0x8e,0xd1,0xff,0xff,0xff,0xff,0xff,0xff,0xff,
 0xff,0xff,0xff,0xff,0xff,0xff,0xff,0xff,0xff,0xff,0xff,0xff,0xff,0xff,0xff,
 0xff,0xff,0xff,0xff,0xff,0xff,0xff,0x8f,0x83,0xab,0xff,0xff,0xff,0xff,0xff,
 0xff,0xff,0xff,0xff,0xff,0xff,0xff,0xff,0xff,0xff,0xff,0xff,0xff,0xff,0xff,
 0xff,0xff,0xff,0xff,0xff,0xff,0xff,0xff,0xff,0x87,0xb1,0xd5,0xff,0xff,0xff,
 0xff,0xff,0xff,0xff,0xff,0xff,0xff,0xff,0xff,0xff,0xff,0xff,0xff,0xff,0xff,
 0xff,0xff,0xff,0xff,0xff,0xff,0xff,0xff,0xff,0xff,0xff,0xcb,0x88,0xab,0xff,
 0xff,0xff,0xff,0xff,0xff,0xff,0xff,0xff,0xff,0xff,0xff,0xff,0xff,0xff,0xff,
 0xff,0xff,0xff,0xff,0xff,0xff,0xff,0xff,0xff,0xff,0xff,0xff,0xff,0x23,0xa2,
 0xd5,0xff,0xff,0xff,0xff,0xff,0xff,0xff,0xff,0xff,0xff,0xff,0xff,0xff,0xff,
 0xff,0xff,0xff,0xff,0xff,0xff,0xff,0xff,0xff,0xff,0xff,0xff,0xff,0xff,0xff,
 0x38,0xc8,0x2b,0xf8,0xff,0xff,0xff,0xff,0xff,0xff,0xff,0xff,0xff,0xff,0xff,
 0xff,0xff,0xff,0xff,0xff,0xff,0xff,0xff,0xff,0xff,0xff,0xff,0xff,0xff,0xff,
 0xff,0x7f,0x06,0xe2,0xed,0xf0,0xff,0xff,0xff,0xff,0xff,0xff,0xff,0xff,0xff,
 0xff,0xff,0xff,0xff,0xff,0xff,0xff,0xff,0xff,0xff,0xff,0xff,0xff,0xff,0xff,
 0xff,0xff,0xff,0x3f,0x8e,0xf8,0xc3,0xe2,0xff,0xff,0xff,0xff,0xff,0xff,0xff,
 0xff,0xff,0xff,0xff,0xff,0xff,0xff,0xff,0xff,0xff,0xff,0xff,0xff,0xff,0xff,
 0xff,0xff,0xff,0xff,0xff,0x1f,0x23,0xfe,0x89,0xc9,0xff,0xff,0xff,0xff,0xff,
 0xff,0xff,0xff,0xff,0xff,0xff,0xff,0xff,0xff,0xff,0xff,0xff,0xff,0xff,0xff,
 0xff,0xff,0xff,0xff,0xff,0xff,0xff,0x8f,0x89,0xff,0x23,0x82,0xff,0xff,0xff,
 0xff,0xff,0xff,0xff,0xff,0xff,0xff,0xff,0xff,0xff,0xff,0xff,0xff,0xff,0xff,
 0xff,0xff,0xff,0xff,0xff,0xff,0xff,0xff,0xff,0xe7,0xe2,0xff,0x89,0x8c,0xff,
 0xff,0xff,0xff,0xff,0xff,0xff,0xff,0xff,0xff,0xff,0xff,0xff,0xff,0xff,0xff,
 0xff,0xff,0xff,0xff,0xff,0xff,0xff,0xff,0xff,0xff,0xff,0xb3,0xf8,0xff,0x23,
 0x38,0xfe,0xff,0xff,0xff,0xff,0xff,0xff,0xff,0xff,0xff,0xff,0xff,0xff,0xff,
 0xff,0xff,0xff,0xff,0xff,0xff,0xff,0xff,0xff,0xff,0xff,0xff,0xff,0x39,0xfa,
 0xff,0x8d,0xb8,0xfc,0xff,0xff,0xff,0xff,0xff,0xff,0xff,0xff,0xff,0xff,0xff,
 0xff,0xff,0xff,0xff,0xff,0xff,0xff,0xff,0xff,0xff,0xff,0xff,0xff,0xff,0xff,
 0x88,0xff,0xff,0x27,0x62,0xf8,0xff,0xff,0xff,0xff,0xff,0xff,0xff,0xff,0xff,
 0xff,0xff,0xff,0xff,0xff,0xff,0xff,0xff,0xff,0xff,0xff,0xff,0xff,0xff,0xff,
 0xff,0x7f,0xa2,0xff,0xff,0x89,0x80,0xf8,0xff,0xff,0xff,0xff,0xff,0xff,0xff,
 0xff,0xff,0xff,0xff,0xff,0xff,0xff,0xff,0xff,0xff,0xff,0xff,0xff,0xff,0xff,
 0xff,0xff,0xff,0x3f,0xc8,0xff,0xff,0xff,0xff,0xff,0xff,0xff,0xff,0xff,0xff,
 0xff,0xff,0xff,0xff,0xff,0xff,0xff,0xff,0xff,0xff,0xff,0xff,0xff,0xff,0xff,
 0xff,0xff,0xff,0xff,0xff,0xff,0xff,0xff,0xff};
------------ END --------------


