#define plot4.xbm_width 64
#define plot4.xbm_height 64
static char plot4.xbm_bits[] = {
   0x00, 0x00, 0x00, 0x00, 0x00, 0x00, 0x00, 0x00, 0x00, 0x00, 0x00, 0x00,
   0x00, 0x00, 0x00, 0x00, 0x00, 0x3f, 0xf8, 0x7d, 0x18, 0x3f, 0xf8, 0x01,
   0x80, 0x01, 0x0e, 0x46, 0x18, 0x63, 0x18, 0x03, 0xc0, 0x00, 0x03, 0x06,
   0x1c, 0xc3, 0x18, 0x03, 0x60, 0x80, 0x03, 0x06, 0x1e, 0xc3, 0x98, 0x03,
   0x60, 0x80, 0x01, 0x1c, 0x1b, 0xc3, 0xf8, 0x01, 0x60, 0x80, 0xf1, 0x38,
   0x1b, 0xc3, 0xd8, 0x00, 0x60, 0x80, 0xc1, 0xb0, 0x9d, 0xc3, 0x8c, 0x01,
   0x60, 0x80, 0xc3, 0xb0, 0x9f, 0xe1, 0x8c, 0x01, 0xc0, 0x10, 0xc3, 0x31,
   0x8c, 0x71, 0x8c, 0x03, 0x80, 0x1f, 0x7c, 0x1f, 0x8c, 0x7f, 0x0c, 0x03,
   0x00, 0x00, 0x00, 0x00, 0x00, 0x00, 0x00, 0x00, 0x00, 0x00, 0x00, 0x00,
   0x00, 0x00, 0x00, 0x00, 0x00, 0x00, 0x00, 0x00, 0x00, 0x00, 0x00, 0x00,
   0x00, 0x00, 0x00, 0x00, 0x00, 0x00, 0x00, 0x00, 0x00, 0x00, 0x00, 0x00,
   0x00, 0x00, 0x00, 0x00, 0x00, 0x00, 0x00, 0x00, 0x00, 0x00, 0x00, 0x00,
   0x00, 0x00, 0x00, 0x00, 0x00, 0x00, 0x00, 0x00, 0x00, 0x00, 0x00, 0x00,
   0x00, 0x00, 0x00, 0x00, 0x00, 0xe0, 0xff, 0xff, 0xff, 0x7f, 0x00, 0x00,
   0x00, 0x10, 0x00, 0x00, 0x00, 0x80, 0x01, 0x00, 0x00, 0x10, 0xff, 0xff,
   0xff, 0x8f, 0x02, 0x00, 0x00, 0x90, 0x00, 0x00, 0x00, 0x90, 0x04, 0x00,
   0x00, 0x50, 0x00, 0x00, 0x00, 0xa0, 0x08, 0x00, 0x00, 0x50, 0x00, 0x00,
   0x00, 0xa0, 0x10, 0x00, 0x00, 0x50, 0x00, 0xf8, 0x03, 0xa0, 0x10, 0x00,
   0x00, 0x50, 0x00, 0xfe, 0x0f, 0xa0, 0x10, 0x00, 0x00, 0x50, 0x00, 0x06,
   0x1c, 0xa0, 0x10, 0x00, 0x00, 0x50, 0x00, 0x03, 0x30, 0xa0, 0x10, 0x00,
   0x00, 0x50, 0x80, 0x01, 0x60, 0xa0, 0x10, 0x00, 0x00, 0x50, 0x80, 0x0e,
   0x7c, 0xa0, 0x10, 0x00, 0x00, 0x50, 0x80, 0x39, 0x46, 0xa0, 0x10, 0x00,
   0x00, 0x50, 0xc0, 0xe0, 0x43, 0xa0, 0x10, 0x00, 0x00, 0x50, 0xa0, 0x01,
   0xe0, 0xa0, 0x10, 0x00, 0x00, 0x50, 0xa0, 0xe1, 0xb0, 0xa0, 0x10, 0x00,
   0x00, 0x50, 0xc0, 0x1f, 0xbf, 0xa0, 0x10, 0x00, 0x00, 0x50, 0xc0, 0x04,
   0x64, 0xa0, 0x10, 0x00, 0x00, 0x50, 0xc0, 0x02, 0x68, 0xa0, 0x10, 0x00,
   0x00, 0x50, 0xc0, 0x91, 0x70, 0xa0, 0x10, 0x00, 0x00, 0x50, 0x80, 0x61,
   0x30, 0xa0, 0x10, 0x00, 0x00, 0x50, 0xe0, 0x02, 0xe8, 0xa0, 0x10, 0x00,
   0x00, 0x50, 0x30, 0x00, 0x80, 0xa1, 0x10, 0x00, 0x00, 0x50, 0x10, 0x02,
   0x02, 0xa1, 0x10, 0x00, 0x00, 0x50, 0x18, 0xfe, 0x07, 0xa3, 0x10, 0x00,
   0x00, 0x50, 0x18, 0x01, 0x04, 0xa3, 0x10, 0x00, 0x00, 0x50, 0x18, 0x01,
   0x04, 0xa3, 0x10, 0x00, 0x00, 0x50, 0x18, 0x03, 0x06, 0xa3, 0x10, 0x00,
   0x00, 0x50, 0x18, 0xfd, 0x05, 0xa3, 0x10, 0x00, 0x00, 0x50, 0x18, 0x00,
   0x00, 0xa3, 0x10, 0x00, 0x00, 0x50, 0x30, 0xf8, 0x80, 0xa1, 0x10, 0x00,
   0x00, 0x50, 0x60, 0x00, 0xc0, 0xa0, 0x10, 0x00, 0x00, 0x50, 0xc0, 0x00,
   0x70, 0xa0, 0x10, 0x00, 0x00, 0x50, 0x80, 0x23, 0x3c, 0xa0, 0x10, 0x00,
   0x00, 0x50, 0x00, 0xff, 0x0f, 0xa0, 0x18, 0x00, 0x00, 0x50, 0x00, 0x00,
   0x00, 0xa0, 0x08, 0x00, 0x00, 0x50, 0x00, 0x00, 0x00, 0xa0, 0x04, 0x00,
   0x00, 0x90, 0x00, 0x00, 0x00, 0x90, 0x06, 0x00, 0x00, 0x10, 0xff, 0xff,
   0xff, 0x8f, 0x03, 0x00, 0x00, 0x10, 0x00, 0x00, 0x00, 0x80, 0x01, 0x00,
   0x00, 0xe0, 0xff, 0xff, 0xff, 0x7f, 0x00, 0x00, 0x00, 0x00, 0x00, 0x00,
   0x00, 0x00, 0x00, 0x00, 0x00, 0x00, 0x00, 0x00, 0x00, 0x00, 0x00, 0x00,
   0x00, 0x00, 0x00, 0x00, 0x00, 0x00, 0x00, 0x00};
