#define port1_width 22
#define port1_height 16
static char port1_bits[] = {
   0xff, 0xff, 0x3f, 0x01, 0xf8, 0x3f, 0x01, 0xf8, 0x3f, 0x01, 0xf8, 0x3f,
   0x01, 0xf8, 0x3f, 0x01, 0xf8, 0x3f, 0x01, 0xf8, 0x3f, 0x01, 0xf8, 0x3f,
   0xff, 0xff, 0x3f, 0xff, 0xff, 0x3f, 0xff, 0xff, 0x3f, 0xff, 0xff, 0x3f,
   0xff, 0xff, 0x3f, 0xff, 0xff, 0x3f, 0xff, 0xff, 0x3f, 0xff, 0xff, 0x3f};
