#define port0_width 22
#define port0_height 16
static char port0_bits[] = {
   0xff, 0xff, 0x3f, 0x01, 0x00, 0x20, 0x01, 0x00, 0x20, 0x01, 0x00, 0x20,
   0x01, 0x00, 0x20, 0x01, 0x00, 0x20, 0x01, 0x00, 0x20, 0x01, 0x00, 0x20,
   0x01, 0x00, 0x20, 0x01, 0x00, 0x20, 0x01, 0x00, 0x20, 0x01, 0x00, 0x20,
   0x01, 0x00, 0x20, 0x01, 0x00, 0x20, 0x01, 0x00, 0x20, 0xff, 0xff, 0x3f};
