#define port8_width 22
#define port8_height 16
static char port8_bits[] = {
   0xff, 0xff, 0x3f, 0xff, 0x07, 0x20, 0xff, 0x07, 0x20, 0xff, 0x07, 0x20,
   0xff, 0x07, 0x20, 0xff, 0x07, 0x20, 0xff, 0x07, 0x20, 0xff, 0x07, 0x20,
   0xff, 0x07, 0x20, 0xff, 0x07, 0x20, 0xff, 0x07, 0x20, 0xff, 0x07, 0x20,
   0xff, 0x07, 0x20, 0xff, 0x07, 0x20, 0xff, 0x07, 0x20, 0xff, 0xff, 0x3f};
