#define port2_width 22
#define port2_height 16
static char port2_bits[] = {
   0xff, 0xff, 0x3f, 0xff, 0x07, 0x20, 0xff, 0x07, 0x20, 0xff, 0x07, 0x20,
   0xff, 0x07, 0x20, 0xff, 0x07, 0x20, 0xff, 0x07, 0x20, 0xff, 0x07, 0x20,
   0xff, 0xff, 0x3f, 0xff, 0xff, 0x3f, 0xff, 0xff, 0x3f, 0xff, 0xff, 0x3f,
   0xff, 0xff, 0x3f, 0xff, 0xff, 0x3f, 0xff, 0xff, 0x3f, 0xff, 0xff, 0x3f};
