#define port5_width 22
#define port5_height 16
static char port5_bits[] = {
   0xff, 0xff, 0x3f, 0x01, 0x00, 0x20, 0x01, 0x00, 0x20, 0x01, 0x00, 0x20,
   0x01, 0x00, 0x20, 0x01, 0x00, 0x20, 0x01, 0x00, 0x20, 0x01, 0x00, 0x20,
   0xff, 0xff, 0x3f, 0xff, 0xff, 0x3f, 0xff, 0xff, 0x3f, 0xff, 0xff, 0x3f,
   0xff, 0xff, 0x3f, 0xff, 0xff, 0x3f, 0xff, 0xff, 0x3f, 0xff, 0xff, 0x3f};
