#define port6_width 22
#define port6_height 16
static char port6_bits[] = {
   0xff, 0xff, 0x3f, 0xff, 0xff, 0x3f, 0xff, 0xff, 0x3f, 0xff, 0xff, 0x3f,
   0xff, 0xff, 0x3f, 0xff, 0xff, 0x3f, 0xff, 0xff, 0x3f, 0xff, 0xff, 0x3f,
   0x01, 0x00, 0x20, 0x01, 0x00, 0x20, 0x01, 0x00, 0x20, 0x01, 0x00, 0x20,
   0x01, 0x00, 0x20, 0x01, 0x00, 0x20, 0x01, 0x00, 0x20, 0xff, 0xff, 0x3f};
