#define port4_width 22
#define port4_height 16
static char port4_bits[] = {
   0xff, 0xff, 0x3f, 0xff, 0xff, 0x3f, 0xff, 0xff, 0x3f, 0xff, 0xff, 0x3f,
   0xff, 0xff, 0x3f, 0xff, 0xff, 0x3f, 0xff, 0xff, 0x3f, 0xff, 0xff, 0x3f,
   0xff, 0x07, 0x20, 0xff, 0x07, 0x20, 0xff, 0x07, 0x20, 0xff, 0x07, 0x20,
   0xff, 0x07, 0x20, 0xff, 0x07, 0x20, 0xff, 0x07, 0x20, 0xff, 0xff, 0x3f};
