#define port3_width 22
#define port3_height 16
static char port3_bits[] = {
   0xff, 0xff, 0x3f, 0xff, 0xff, 0x3f, 0xff, 0xff, 0x3f, 0xff, 0xff, 0x3f,
   0xff, 0xff, 0x3f, 0xff, 0xff, 0x3f, 0xff, 0xff, 0x3f, 0xff, 0xff, 0x3f,
   0x01, 0xf8, 0x3f, 0x01, 0xf8, 0x3f, 0x01, 0xf8, 0x3f, 0x01, 0xf8, 0x3f,
   0x01, 0xf8, 0x3f, 0x01, 0xf8, 0x3f, 0x01, 0xf8, 0x3f, 0xff, 0xff, 0x3f};
