#define port7_width 22
#define port7_height 16
static char port7_bits[] = {
   0xff, 0xff, 0x3f, 0x01, 0xf8, 0x3f, 0x01, 0xf8, 0x3f, 0x01, 0xf8, 0x3f,
   0x01, 0xf8, 0x3f, 0x01, 0xf8, 0x3f, 0x01, 0xf8, 0x3f, 0x01, 0xf8, 0x3f,
   0x01, 0xf8, 0x3f, 0x01, 0xf8, 0x3f, 0x01, 0xf8, 0x3f, 0x01, 0xf8, 0x3f,
   0x01, 0xf8, 0x3f, 0x01, 0xf8, 0x3f, 0x01, 0xf8, 0x3f, 0xff, 0xff, 0x3f};
