/* XPM */
static char * archive_xpm[] = {
"16 16 9 1",
" 	c #FFFFFFFF0000",
".	c #C30BC30BC30B",
"X	c #FFFFFFFFFFFF",
"o	c #FFFF659530C2",
"O	c #65956595CF3C",
"+	c #FFFF00000000",
"@	c #9A699A69FFFF",
"#	c #820782078207",
"$	c #C30BC30BC30B",
" ..X.X.. .......",
". . . . ........",
"..  o  XOOOOOO..",
"X   +    X@XOXO.",
" oo+ +o#.@X@OXXO",
"XX  +    X@XOOOO",
"..  o  .X@X@X@XO",
". . O @ @X@X@X@O",
"X..XO@X@X@X@X@XO",
"... O @X@X@X@X@O",
"....O@X@X@X@X@XO",
"....OX@X@X@X@X@O",
"....O@X@X@X@X@XO",
"....OX@X@X@X@X@O",
".$$.O@X@X@X@X@XO",
"....OOOOOOOOOOOO"};
