#define folder_width 16
#define folder_height 12
static char folder_bits[] = {
 0x78,0x00,0x86,0x55,0x02,0x01,0xff,0x5f,0x01,0x30,0x01,0x50,0x01,0x10,0x01,
 0x50,0x01,0x10,0x01,0x50,0x01,0x30,0xff,0x1f};
