#define abc_width 16
#define abc_height 16
static char abc_bits[] = {
   0x00, 0x00, 0x00, 0x00, 0x00, 0x00, 0x00, 0x00, 0x46, 0x00, 0x49, 0x30,
   0xc8, 0x49, 0x4e, 0x0a, 0x49, 0x4a, 0xde, 0x31, 0x00, 0x00, 0x00, 0x00,
   0x00, 0x00, 0x00, 0x00, 0x00, 0x00, 0x00, 0x00};
