#define ar12_12_3_width 16
#define ar12_12_3_height 16
static char ar12_12_3_bits[] = {
   0x00, 0x00, 0x00, 0x00, 0x00, 0x00, 0x00, 0x0c, 0x00, 0x0f, 0xe0, 0x0f,
   0xfc, 0xff, 0xff, 0xff, 0xfc, 0xff, 0xe0, 0x0f, 0x00, 0x0f, 0x00, 0x0c,
   0x00, 0x00, 0x00, 0x00, 0x00, 0x00, 0x00, 0x00};
