#define b2_width 16
#define b2_height 16
static char b2_bits[] = {
   0xf8, 0x1f, 0xfc, 0x3f, 0x6c, 0x36, 0x6c, 0x36, 0x6c, 0x36, 0x6c, 0x36,
   0x6c, 0x36, 0x6c, 0x36, 0xfc, 0x3f, 0xfc, 0x3f, 0xfc, 0x3f, 0xfc, 0x3f,
   0xfc, 0x3f, 0xfc, 0x23, 0xfc, 0x3f, 0xf8, 0x1f};
