#define down_arrow_width 16
#define down_arrow_height 16
static char down_arrow_bits[] = {
   0x00, 0x00, 0x00, 0x00, 0xc0, 0x03, 0xc0, 0x03, 0xc0, 0x03, 0xc0, 0x03,
   0xc0, 0x03, 0xc0, 0x03, 0xf8, 0x1f, 0xf8, 0x1f, 0xf0, 0x0f, 0xe0, 0x07,
   0xc0, 0x03, 0x80, 0x01, 0x00, 0x00, 0x00, 0x00};
