#define dragb1_width 28
#define dragb1_height 16
static char dragb1_bits[] = {
   0x00, 0x80, 0xff, 0x01, 0x00, 0xc0, 0xff, 0x03, 0x00, 0xc0, 0x6c, 0x03,
   0x00, 0xc0, 0x6c, 0x03, 0x00, 0xc0, 0x6c, 0x03, 0x00, 0xc0, 0x6c, 0x03,
   0x40, 0xc0, 0x6c, 0x03, 0xc0, 0xc8, 0x6c, 0x03, 0xfe, 0xdd, 0xff, 0x03,
   0xc0, 0xc8, 0xff, 0x03, 0x40, 0xc0, 0xff, 0x03, 0x00, 0xc0, 0xff, 0x03,
   0x00, 0xc0, 0xff, 0x03, 0x00, 0xc0, 0x3f, 0x02, 0x00, 0xc0, 0xff, 0x03,
   0x00, 0x80, 0xff, 0x01};
