#define files_width 16
#define files_height 16
static char files_bits[] = {
   0x80, 0x1f, 0x80, 0x20, 0xe0, 0x40, 0xa0, 0x40, 0xb8, 0x40, 0xa8, 0x40,
   0xae, 0x40, 0xaa, 0x40, 0xaa, 0x7f, 0x2a, 0x10, 0xea, 0x1f, 0x0a, 0x04,
   0xfa, 0x07, 0x02, 0x01, 0xfe, 0x01, 0x00, 0x00};
