#define information_width 16
#define information_height 16
static char information_bits[] = {
   0xff, 0xff, 0xff, 0xff, 0x03, 0xc0, 0x83, 0xc1, 0x83, 0xc1, 0x03, 0xc0,
   0xc3, 0xc1, 0x83, 0xc1, 0x83, 0xc1, 0x83, 0xc1, 0x83, 0xc1, 0xc3, 0xc3,
   0x03, 0xc0, 0x03, 0xc0, 0xff, 0xff, 0xff, 0xff};
