#define left_width 4
#define left_height 7
static char left_bits[] = {
   0x08, 0x0c, 0x0e, 0x0f, 0x0e, 0x0c, 0x08};
