#define oval_width 16
#define oval_height 16
static char oval_bits[] = {
   0x00, 0x00, 0x00, 0x00, 0x00, 0x00, 0xf0, 0x0f, 0x0c, 0x30, 0x02, 0x40,
   0x01, 0x80, 0x01, 0x80, 0x01, 0x80, 0x01, 0x80, 0x02, 0x40, 0x0c, 0x30,
   0xf0, 0x0f, 0x00, 0x00, 0x00, 0x00, 0x00, 0x00};
