#define pat15_width 16
#define pat15_height 16
static char pat15_bits[] = {
   0x00, 0x00, 0x04, 0x20, 0x0c, 0x20, 0x14, 0x20, 0x24, 0x20, 0x44, 0x20,
   0x84, 0x20, 0x04, 0x21, 0x04, 0x22, 0x04, 0x24, 0x04, 0x28, 0x04, 0x30,
   0x04, 0x20, 0x00, 0x00, 0x00, 0x00, 0x00, 0x00};
