#define shrink_width 16
#define shrink_height 16
static char shrink_bits[] = {
   0x00, 0x00, 0x00, 0x00, 0x00, 0x00, 0xf0, 0x3f, 0xf0, 0x3f, 0x00, 0x1c,
   0x00, 0x0e, 0x00, 0x07, 0x80, 0x03, 0xc0, 0x01, 0xe0, 0x00, 0xf0, 0x3f,
   0xf0, 0x3f, 0x00, 0x00, 0x00, 0x00, 0x00, 0x00};
