#define smooth_width 16
#define smooth_height 16
static unsigned char smooth_bits[] = {
   0x00, 0x00, 0x00, 0x00, 0x00, 0x00, 0xfc, 0x3f, 0x02, 0x40, 0x01, 0x80,
   0x01, 0x80, 0x01, 0x80, 0x01, 0x80, 0x01, 0x80, 0x01, 0x80, 0x02, 0x40,
   0xfc, 0x3f, 0x00, 0x00, 0x00, 0x00, 0x00, 0x00};
