/* XPM */
static char * catalog_xpm[] = {
"16 16 5 1",
" 	c #C30BC30BC30B",
".	c #00000000FFFF",
"X	c #FFFFFFFFFFFF",
"o	c #000000008207",
"O	c #820782078207",
"                ",
"    ..........  ",
"    .XXXXXXX.X. ",
"   ....XXXXX.XXo",
" ..OXXXooOO oooo",
" .XoXX. oXXXXXXo",
". XoXXXXXoO..oXo",
". XoXX.O oXXXXXo",
". XoXXXXXoO..oXo",
". XoXX.OOoXXXXXo",
" . oXXXXoO...oXo",
" ..OXXOooXXXXXXo",
"...oooo  ....oXo",
".o  .XXXXXXXXXXo",
"o   oooooooooooo",
"                "};
