/* XPM */
static char * imagesvr_xpm[] = {
"16 16 32 1",
" 	c #CF3CCF3CCF3C",
".	c #8E388E388E38",
"X	c #7DF77DF77DF7",
"o	c #AEBAAEBAAEBA",
"O	c #9E799E799E79",
"+	c #6DB66DB66DB6",
"@	c #C30BC30BC30B",
"#	c #4D344D344D34",
"$	c #3CF34D346DB6",
"%	c #4D3486174514",
"&	c #55556DB63CF3",
"*	c #5D755D755D75",
"=	c #30C230C26595",
"-	c #3CF33CF33CF3",
";	c #1C711C711C71",
":	c #30C29A696595",
">	c #DF7DDF7DDF7D",
",	c #000000000000",
"<	c #04105D754514",
"1	c #0C300C300C30",
"2	c #BEFBBEFBBEFB",
"3	c #451414510410",
"4	c #A6999E79BEFB",
"5	c #EFBEEFBEEFBE",
"6	c #6DB665958617",
"7	c #F3CEF3CEFFFF",
"8	c #F3CEF3CEF3CE",
"9	c #2CB22CB22CB2",
"0	c #FFFFFFFFFFFF",
"q	c #FFFFF3CEF3CE",
"w	c #C71B9E799658",
"e	c #9E7924920410",
" .XoO.ooOooOO.+@",
"o#$#$$#$%&O..+*@",
"o=*.o+-;-:*-#-$@",
"O*.>O-,,;&<;;,;@",
"X-oo1,,=-+;1,,,@",
"+,*-,;#>.;;,,,;@",
"#,1,,. 2 ;,,,,,@",
"#,;,#>  O;3,,,,@",
"*,,;O>> 4*X.*,;@",
"-,;+2.++O5 .>+,@",
"++6O5*,;*O7 ++;@",
".o2887.,9$8>+;9@",
"+ ;0000O*+q2;+;@",
"$oo$XXo8ww9o9.;@",
"*2*,,,,9;4;;w;e@",
"*$9;,;,;9;.99$9@"};
