/* XPM */
static char * namesvr_xpm[] = {
"16 16 7 1",
" 	c #C30BC30BC30B",
".	c #208120812081",
"X	c #30C230C230C2",
"o	c #9A69CF3CFFFF",
"O	c #000000000000",
"+	c #451445144514",
"@	c #FFFF9A6930C2",
"                ",
" .X.X.X.X.X.X.  ",
" XoooooooooooO  ",
" .oX++X++X+ooO  ",
" XoooooooooooO  ",
" .o@@@oooooooO  ",
" Xo@@@o++X+ooO  ",
" .oooooooooooO  ",
" Xo@@@oooooooO  ",
" .o@@@o++X+ooO  ",
" XoooooooooooO  ",
" .o@@@oooooooO  ",
" Xo@@@o++X+ooO  ",
" XoooooooooooO  ",
" .OOOOOOOOOOOO  ",
"                "};
