/* XPM */
static char * nsfolder_xpm[] = {
"15 16 5 1",
" 	c #C30BC30BC30B",
".	c #9A699A69FFFF",
"X	c #65956595CF3C",
"o	c #FFFFFFFFFFFF",
"O	c #000000000000",
"               ",
"               ",
"  .....        ",
" . . . .       ",
". . . . XXXXXX ",
".ooooooooooooX ",
".o . . . . . XO",
".o. . . . . .XO",
".o . . . . . XO",
".o. . . . . .XO",
".o . . . . . XO",
".o. . . . . .XO",
"XXXXXXXXXXXXXXO",
" OOOOOOOOOOOOOO",
"               ",
"               "};
