/* XPM */
static char * nsopenfold_xpm[] = {
"16 16 7 1",
" 	c #C30BC30BC30B",
".	c #9A699A69FFFF",
"X	c #FFFFFFFFFFFF",
"o	c #65956595CF3C",
"O	c #000000000000",
"+	c #820782078207",
"@	c #000034D33CF3",
"                ",
"                ",
"   .....        ",
"  .XXXXX.       ",
" .X. . .Xoooooo ",
" .X . . .XXXXXo ",
" .X. . . . . .oO",
"oooooooooooo. oO",
"oXXXXXXXXX O+.oO",
" o. . . . . O oO",
" o . . . . .@OoO",
"  o . . . . .@OO",
"  oooooooooooooO",
"   OOOOOOOOOOOOO",
"                ",
"                "};
