#define symb_arrow_width 16
#define symb_arrow_height 16
static unsigned char symb_arrow_bits[] = {
   0x00, 0x01, 0x80, 0x03, 0xc0, 0x07, 0xe0, 0x0f, 0x00, 0x01, 0x00, 0x01,
   0x00, 0x01, 0x00, 0x01, 0x00, 0x01, 0x00, 0x01, 0x00, 0x00, 0x00, 0x00,
   0x00, 0x00, 0x00, 0x00, 0x00, 0x00, 0x00, 0x00};
