#define symb_triangle_width 16
#define symb_triangle_height 16
static unsigned char symb_triangle_bits[] = {
   0x80, 0x01, 0x80, 0x01, 0x40, 0x02, 0x40, 0x02, 0x20, 0x04, 0x20, 0x04,
   0x10, 0x08, 0x10, 0x08, 0x08, 0x10, 0x08, 0x10, 0x04, 0x20, 0x04, 0x20,
   0x02, 0x40, 0x02, 0x40, 0x01, 0x80, 0xff, 0xff};
