#define symb_square_width 16
#define symb_square_height 16
static char symb_square_bits[] = {
   0xff, 0xff, 0x01, 0x80, 0x01, 0x80, 0x01, 0x80, 0x01, 0x80, 0x01, 0x80,
   0x01, 0x80, 0x01, 0x80, 0x01, 0x80, 0x01, 0x80, 0x01, 0x80, 0x01, 0x80,
   0x01, 0x80, 0x01, 0x80, 0x01, 0x80, 0xff, 0xff};
