P3
# CREATOR: The GIMP's PNM Filter Version 1.0
82 12
255
223
219
223
223
219
223
223
219
223
223
219
223
223
219
223
223
219
223
223
219
223
223
219
223
223
219
223
223
219
223
223
219
223
223
219
223
223
219
223
223
219
223
223
219
223
223
219
223
223
219
223
223
219
223
223
219
223
223
219
223
223
219
223
223
219
223
223
219
223
223
219
223
223
219
223
223
219
223
223
219
223
223
219
223
223
219
223
223
219
223
223
219
223
223
219
223
223
219
223
223
219
223
223
219
223
223
219
223
223
219
223
223
219
223
223
219
223
223
219
223
223
219
223
223
219
223
223
219
223
223
219
223
223
219
223
223
219
223
223
219
223
223
219
223
223
219
223
223
219
223
223
219
223
223
219
223
223
219
223
223
219
223
223
219
223
223
219
223
223
219
223
223
219
223
223
219
223
223
219
223
223
219
223
223
219
223
223
219
223
223
219
223
223
219
223
223
219
223
223
219
223
223
219
223
223
219
223
223
219
223
223
219
223
223
219
223
223
219
223
223
219
223
223
219
223
223
219
223
223
219
223
223
219
223
223
219
223
223
219
223
223
219
223
223
219
223
223
219
223
0
0
0
0
0
0
0
0
0
0
0
0
0
0
0
0
0
0
0
0
0
0
0
0
0
0
0
0
0
0
255
255
255
255
255
255
255
255
255
255
255
255
255
255
255
255
255
255
255
255
255
255
255
255
255
255
255
0
0
0
255
0
0
255
0
0
255
0
0
255
0
0
255
0
0
255
0
0
255
0
0
255
0
0
255
0
0
0
0
0
0
255
0
0
255
0
0
255
0
0
255
0
0
255
0
0
255
0
0
255
0
0
255
0
0
255
0
0
0
0
0
0
255
0
0
255
0
0
255
0
0
255
0
0
255
0
0
255
0
0
255
0
0
255
0
0
255
0
0
0
0
255
255
0
255
255
0
255
255
0
255
255
0
255
255
0
255
255
0
255
255
0
255
255
0
255
255
0
0
0
255
0
255
255
0
255
255
0
255
255
0
255
255
0
255
255
0
255
255
0
255
255
0
255
255
0
255
0
0
0
255
255
0
255
255
0
255
255
0
255
255
0
255
255
0
255
255
0
255
255
0
255
255
0
255
255
0
0
0
0
223
219
223
223
219
223
0
0
0
0
0
0
0
0
0
0
0
0
0
0
0
0
0
0
0
0
0
0
0
0
0
0
0
0
0
0
255
255
255
255
255
255
255
255
255
255
255
255
255
255
255
255
255
255
255
255
255
255
255
255
255
255
255
0
0
0
255
0
0
255
0
0
255
0
0
255
0
0
255
0
0
255
0
0
255
0
0
255
0
0
255
0
0
0
0
0
0
255
0
0
255
0
0
255
0
0
255
0
0
255
0
0
255
0
0
255
0
0
255
0
0
255
0
0
0
0
0
0
255
0
0
255
0
0
255
0
0
255
0
0
255
0
0
255
0
0
255
0
0
255
0
0
255
0
0
0
0
255
255
0
255
255
0
255
255
0
255
255
0
255
255
0
255
255
0
255
255
0
255
255
0
255
255
0
0
0
255
0
255
255
0
255
255
0
255
255
0
255
255
0
255
255
0
255
255
0
255
255
0
255
255
0
255
0
0
0
255
255
0
255
255
0
255
255
0
255
255
0
255
255
0
255
255
0
255
255
0
255
255
0
255
255
0
0
0
0
223
219
223
223
219
223
0
0
0
0
0
0
0
0
0
0
0
0
0
0
0
0
0
0
0
0
0
0
0
0
0
0
0
0
0
0
255
255
255
255
255
255
255
255
255
255
255
255
255
255
255
255
255
255
255
255
255
255
255
255
255
255
255
0
0
0
255
0
0
255
0
0
255
0
0
255
0
0
255
0
0
255
0
0
255
0
0
255
0
0
255
0
0
0
0
0
0
255
0
0
255
0
0
255
0
0
255
0
0
255
0
0
255
0
0
255
0
0
255
0
0
255
0
0
0
0
0
0
255
0
0
255
0
0
255
0
0
255
0
0
255
0
0
255
0
0
255
0
0
255
0
0
255
0
0
0
0
255
255
0
255
255
0
255
255
0
255
255
0
255
255
0
255
255
0
255
255
0
255
255
0
255
255
0
0
0
255
0
255
255
0
255
255
0
255
255
0
255
255
0
255
255
0
255
255
0
255
255
0
255
255
0
255
0
0
0
255
255
0
255
255
0
255
255
0
255
255
0
255
255
0
255
255
0
255
255
0
255
255
0
255
255
0
0
0
0
223
219
223
223
219
223
0
0
0
0
0
0
0
0
0
0
0
0
0
0
0
0
0
0
0
0
0
0
0
0
0
0
0
0
0
0
255
255
255
255
255
255
255
255
255
255
255
255
255
255
255
255
255
255
255
255
255
255
255
255
255
255
255
0
0
0
255
0
0
255
0
0
255
0
0
255
0
0
255
0
0
255
0
0
255
0
0
255
0
0
255
0
0
0
0
0
0
255
0
0
255
0
0
255
0
0
255
0
0
255
0
0
255
0
0
255
0
0
255
0
0
255
0
0
0
0
0
0
255
0
0
255
0
0
255
0
0
255
0
0
255
0
0
255
0
0
255
0
0
255
0
0
255
0
0
0
0
255
255
0
255
255
0
255
255
0
255
255
0
255
255
0
255
255
0
255
255
0
255
255
0
255
255
0
0
0
255
0
255
255
0
255
255
0
255
255
0
255
255
0
255
255
0
255
255
0
255
255
0
255
255
0
255
0
0
0
255
255
0
255
255
0
255
255
0
255
255
0
255
255
0
255
255
0
255
255
0
255
255
0
255
255
0
0
0
0
223
219
223
223
219
223
0
0
0
0
0
0
0
0
0
0
0
0
0
0
0
0
0
0
0
0
0
0
0
0
0
0
0
0
0
0
255
255
255
255
255
255
255
255
255
255
255
255
255
255
255
255
255
255
255
255
255
255
255
255
255
255
255
0
0
0
255
0
0
255
0
0
255
0
0
255
0
0
255
0
0
255
0
0
255
0
0
255
0
0
255
0
0
0
0
0
0
255
0
0
255
0
0
255
0
0
255
0
0
255
0
0
255
0
0
255
0
0
255
0
0
255
0
0
0
0
0
0
255
0
0
255
0
0
255
0
0
255
0
0
255
0
0
255
0
0
255
0
0
255
0
0
255
0
0
0
0
255
255
0
255
255
0
255
255
0
255
255
0
255
255
0
255
255
0
255
255
0
255
255
0
255
255
0
0
0
255
0
255
255
0
255
255
0
255
255
0
255
255
0
255
255
0
255
255
0
255
255
0
255
255
0
255
0
0
0
255
255
0
255
255
0
255
255
0
255
255
0
255
255
0
255
255
0
255
255
0
255
255
0
255
255
0
0
0
0
223
219
223
223
219
223
0
0
0
0
0
0
0
0
0
0
0
0
0
0
0
0
0
0
0
0
0
0
0
0
0
0
0
0
0
0
255
255
255
255
255
255
255
255
255
255
255
255
255
255
255
255
255
255
255
255
255
255
255
255
255
255
255
0
0
0
255
0
0
255
0
0
255
0
0
255
0
0
255
0
0
255
0
0
255
0
0
255
0
0
255
0
0
0
0
0
0
255
0
0
255
0
0
255
0
0
255
0
0
255
0
0
255
0
0
255
0
0
255
0
0
255
0
0
0
0
0
0
255
0
0
255
0
0
255
0
0
255
0
0
255
0
0
255
0
0
255
0
0
255
0
0
255
0
0
0
0
255
255
0
255
255
0
255
255
0
255
255
0
255
255
0
255
255
0
255
255
0
255
255
0
255
255
0
0
0
255
0
255
255
0
255
255
0
255
255
0
255
255
0
255
255
0
255
255
0
255
255
0
255
255
0
255
0
0
0
255
255
0
255
255
0
255
255
0
255
255
0
255
255
0
255
255
0
255
255
0
255
255
0
255
255
0
0
0
0
223
219
223
223
219
223
0
0
0
0
0
0
0
0
0
0
0
0
0
0
0
0
0
0
0
0
0
0
0
0
0
0
0
0
0
0
255
255
255
255
255
255
255
255
255
255
255
255
255
255
255
255
255
255
255
255
255
255
255
255
255
255
255
0
0
0
255
0
0
255
0
0
255
0
0
255
0
0
255
0
0
255
0
0
255
0
0
255
0
0
255
0
0
0
0
0
0
255
0
0
255
0
0
255
0
0
255
0
0
255
0
0
255
0
0
255
0
0
255
0
0
255
0
0
0
0
0
0
255
0
0
255
0
0
255
0
0
255
0
0
255
0
0
255
0
0
255
0
0
255
0
0
255
0
0
0
0
255
255
0
255
255
0
255
255
0
255
255
0
255
255
0
255
255
0
255
255
0
255
255
0
255
255
0
0
0
255
0
255
255
0
255
255
0
255
255
0
255
255
0
255
255
0
255
255
0
255
255
0
255
255
0
255
0
0
0
255
255
0
255
255
0
255
255
0
255
255
0
255
255
0
255
255
0
255
255
0
255
255
0
255
255
0
0
0
0
223
219
223
223
219
223
0
0
0
0
0
0
0
0
0
0
0
0
0
0
0
0
0
0
0
0
0
0
0
0
0
0
0
0
0
0
255
255
255
255
255
255
255
255
255
255
255
255
255
255
255
255
255
255
255
255
255
255
255
255
255
255
255
0
0
0
255
0
0
255
0
0
255
0
0
255
0
0
255
0
0
255
0
0
255
0
0
255
0
0
255
0
0
0
0
0
0
255
0
0
255
0
0
255
0
0
255
0
0
255
0
0
255
0
0
255
0
0
255
0
0
255
0
0
0
0
0
0
255
0
0
255
0
0
255
0
0
255
0
0
255
0
0
255
0
0
255
0
0
255
0
0
255
0
0
0
0
255
255
0
255
255
0
255
255
0
255
255
0
255
255
0
255
255
0
255
255
0
255
255
0
255
255
0
0
0
255
0
255
255
0
255
255
0
255
255
0
255
255
0
255
255
0
255
255
0
255
255
0
255
255
0
255
0
0
0
255
255
0
255
255
0
255
255
0
255
255
0
255
255
0
255
255
0
255
255
0
255
255
0
255
255
0
0
0
0
223
219
223
223
219
223
0
0
0
0
0
0
0
0
0
0
0
0
0
0
0
0
0
0
0
0
0
0
0
0
0
0
0
0
0
0
255
255
255
255
255
255
255
255
255
255
255
255
255
255
255
255
255
255
255
255
255
255
255
255
255
255
255
0
0
0
255
0
0
255
0
0
255
0
0
255
0
0
255
0
0
255
0
0
255
0
0
255
0
0
255
0
0
0
0
0
0
255
0
0
255
0
0
255
0
0
255
0
0
255
0
0
255
0
0
255
0
0
255
0
0
255
0
0
0
0
0
0
255
0
0
255
0
0
255
0
0
255
0
0
255
0
0
255
0
0
255
0
0
255
0
0
255
0
0
0
0
255
255
0
255
255
0
255
255
0
255
255
0
255
255
0
255
255
0
255
255
0
255
255
0
255
255
0
0
0
255
0
255
255
0
255
255
0
255
255
0
255
255
0
255
255
0
255
255
0
255
255
0
255
255
0
255
0
0
0
255
255
0
255
255
0
255
255
0
255
255
0
255
255
0
255
255
0
255
255
0
255
255
0
255
255
0
0
0
0
223
219
223
223
219
223
0
0
0
0
0
0
0
0
0
0
0
0
0
0
0
0
0
0
0
0
0
0
0
0
0
0
0
0
0
0
0
0
0
0
0
0
0
0
0
0
0
0
0
0
0
0
0
0
0
0
0
0
0
0
0
0
0
0
0
0
0
0
0
0
0
0
0
0
0
0
0
0
0
0
0
0
0
0
0
0
0
0
0
0
0
0
0
0
0
0
0
0
0
0
0
0
0
0
0
0
0
0
0
0
0
0
0
0
0
0
0
0
0
0
0
0
0
0
0
0
0
0
0
0
0
0
0
0
0
0
0
0
0
0
0
0
0
0
0
0
0
0
0
0
0
0
0
0
0
0
0
0
0
0
0
0
0
0
0
0
0
0
0
0
0
0
0
0
0
0
0
0
0
0
0
0
0
0
0
0
0
0
0
0
0
0
0
0
0
0
0
0
0
0
0
0
0
0
0
0
0
0
0
0
0
0
0
0
0
0
0
0
0
0
0
0
0
0
0
0
0
0
0
0
0
0
0
0
0
0
0
0
0
0
0
0
0
0
0
0
223
219
223
223
219
223
223
219
223
223
219
223
223
219
223
223
219
223
223
219
223
223
219
223
223
219
223
223
219
223
223
219
223
223
219
223
223
219
223
223
219
223
223
219
223
223
219
223
223
219
223
223
219
223
223
219
223
223
219
223
223
219
223
223
219
223
223
219
223
223
219
223
223
219
223
223
219
223
223
219
223
223
219
223
223
219
223
223
219
223
223
219
223
223
219
223
223
219
223
223
219
223
223
219
223
223
219
223
223
219
223
223
219
223
223
219
223
223
219
223
223
219
223
223
219
223
223
219
223
223
219
223
223
219
223
223
219
223
223
219
223
223
219
223
223
219
223
223
219
223
223
219
223
223
219
223
223
219
223
223
219
223
223
219
223
223
219
223
223
219
223
223
219
223
223
219
223
223
219
223
223
219
223
223
219
223
223
219
223
223
219
223
223
219
223
223
219
223
223
219
223
223
219
223
223
219
223
223
219
223
223
219
223
223
219
223
223
219
223
223
219
223
223
219
223
223
219
223
223
219
223
223
219
223
223
219
223
223
219
223
223
219
223
223
219
223
223
219
223
