#define annular_circle_width 15
#define annular_circle_height 15
static unsigned char annular_circle_bits[] = {
   0xc0, 0x01, 0x30, 0x06, 0x8c, 0x18, 0x74, 0x17, 0x0a, 0x28, 0xca, 0x29,
   0x29, 0x4a, 0x25, 0x52, 0x29, 0x4a, 0xca, 0x29, 0x0a, 0x28, 0x74, 0x17,
   0x8c, 0x18, 0x30, 0x06, 0xc0, 0x01};
