#define annular_ellipse_width 16
#define annular_ellipse_height 16
static unsigned char annular_ellipse_bits[] = {
   0x00, 0x00, 0x00, 0x0f, 0xc0, 0x1f, 0x70, 0x30, 0x98, 0x6f, 0x4c, 0x68,
   0x24, 0x4b, 0x96, 0x6a, 0x4a, 0x6b, 0xd2, 0x29, 0x12, 0x36, 0xe6, 0x19,
   0x04, 0x0c, 0x1c, 0x07, 0xf8, 0x01, 0x00, 0x00};
