#define column_width 16
#define column_height 16
static unsigned char column_bits[] = {
   0x80, 0x01, 0x80, 0x01, 0x80, 0x01, 0x80, 0x01, 0x80, 0x01, 0x80, 0x01,
   0x80, 0x01, 0x80, 0x01, 0x80, 0x01, 0x80, 0x01, 0x80, 0x01, 0x80, 0x01,
   0x80, 0x01, 0x80, 0x01, 0x80, 0x01, 0x80, 0x01};
