#define ellipse_width 16
#define ellipse_height 16
static unsigned char ellipse_bits[] = {
   0x00, 0x00, 0x00, 0x0f, 0xc0, 0x1f, 0x70, 0x30, 0x18, 0x60, 0x0c, 0x60,
   0x04, 0x40, 0x06, 0x60, 0x02, 0x60, 0x02, 0x20, 0x02, 0x30, 0x06, 0x18,
   0x04, 0x0c, 0x1c, 0x07, 0xf8, 0x01, 0x00, 0x00};
