#define finger_width 19
#define finger_height 19
static unsigned char finger_bits[] = {
   0x00, 0x00, 0x00, 0x00, 0x03, 0x00, 0x00, 0x03, 0x00, 0xc0, 0x03, 0x00,
   0xc0, 0x01, 0x00, 0xe0, 0x01, 0x00, 0xf0, 0xff, 0x07, 0xf0, 0xff, 0x07,
   0xfe, 0x3f, 0x00, 0xfe, 0x3f, 0x00, 0xfe, 0x1f, 0x00, 0xfe, 0x1f, 0x00,
   0xfe, 0x1f, 0x00, 0xfe, 0x0f, 0x00, 0xe0, 0x0f, 0x00, 0xc0, 0x07, 0x00,
   0x00, 0x00, 0x00, 0x00, 0x00, 0x00, 0x00, 0x00, 0x00};
