#define gaiaplus_width 16
#define gaiaplus_height 16
static unsigned char gaiaplus_bits[] = {
   0x80, 0x00, 0x80, 0x00, 0x80, 0x00, 0x80, 0x00, 0x80, 0x00, 0x80, 0x00,
   0x80, 0x00, 0xff, 0x7f, 0x80, 0x00, 0x80, 0x00, 0x80, 0x00, 0x80, 0x00,
   0x80, 0x00, 0x80, 0x00, 0x80, 0x00, 0x00, 0x00};
