#define pointpoly_width 16
#define pointpoly_height 16
static unsigned char pointpoly_bits[] = {
   0x07, 0x00, 0x07, 0x00, 0x07, 0xe0, 0x09, 0xf0, 0xf1, 0xec, 0xe1, 0x43,
   0xe1, 0x40, 0x01, 0x20, 0x01, 0x20, 0x03, 0x10, 0x03, 0x10, 0x0f, 0x08,
   0x30, 0x08, 0xc0, 0x0e, 0x00, 0x0f, 0x00, 0x06};
