#define poly_width 16
#define poly_height 16
static unsigned char poly_bits[] = {
   0x01, 0x00, 0x03, 0x00, 0x05, 0xc0, 0x09, 0xb0, 0x11, 0x8c, 0x21, 0x43,
   0xc1, 0x40, 0x01, 0x20, 0x01, 0x20, 0x01, 0x10, 0x03, 0x10, 0x0c, 0x08,
   0x30, 0x08, 0xc0, 0x04, 0x00, 0x07, 0x00, 0x00};
