#define rectangle_width 16
#define rectangle_height 16
static unsigned char rectangle_bits[] = {
   0x00, 0x00, 0x00, 0x00, 0x00, 0x00, 0xff, 0xff, 0x01, 0x80, 0x01, 0x80,
   0x01, 0x80, 0x01, 0x80, 0x01, 0x80, 0x01, 0x80, 0x01, 0x80, 0x01, 0x80,
   0xff, 0xff, 0x00, 0x00, 0x00, 0x00, 0x00, 0x00};
