#define stcshape_width 16
#define stcshape_height 16
static unsigned char stcshape_bits[] = {
   0x00, 0x00, 0x00, 0x00, 0x00, 0x00, 0x00, 0x00, 0xef, 0x7b, 0x81, 0x08,
   0x8f, 0x08, 0x88, 0x08, 0x8f, 0x78, 0x00, 0x00, 0x00, 0x00, 0x00, 0x00,
   0x00, 0x00, 0x00, 0x00, 0x00, 0x00, 0x00, 0x00 };
