#define symb_rotbox_width 16
#define symb_rotbox_height 16
static unsigned char symb_rotbox_bits[] = {
   0x00, 0x00, 0x00, 0x07, 0x80, 0x0d, 0xc0, 0x18, 0x60, 0x30, 0x30, 0x60,
   0x18, 0x40, 0x0c, 0x60, 0x06, 0x30, 0x03, 0x18, 0x01, 0x0c, 0x03, 0x06,
   0x06, 0x03, 0x8c, 0x01, 0xd8, 0x00, 0x70, 0x00};
