#define xrange_width 16
#define xrange_height 16
static unsigned char xrange_bits[] = {
 0x00,0x00,0x00,0x00,0x00,0x00,0x02,0x40,0x02,0x40,0x02,0x40,0x02,0x40,0x02,
 0x40,0xfe,0x7f,0x02,0x40,0x02,0x40,0x02,0x40,0x02,0x40,0x00,0x00,0x00,0x00,
 0x00,0x00 };
