#define yrange_width 16
#define yrange_height 16
static unsigned char yrange_bits[] = {
   0x00, 0x00, 0xf8, 0x1f, 0x80, 0x00, 0x80, 0x00, 0x80, 0x00, 0x80, 0x00,
   0x80, 0x00, 0x80, 0x00, 0x80, 0x00, 0x80, 0x00, 0x80, 0x00, 0x80, 0x00,
   0x80, 0x00, 0x80, 0x00, 0xf8, 0x1f, 0x00, 0x00 };
