#define tsquare_width 16
#define tsquare_height 16
static char tsquare_bits[] = {
   0xff, 0xff, 0xff, 0xff, 0x03, 0xc0, 0x03, 0xc0, 0x03, 0xc0, 0x03, 0xc0,
   0x03, 0xc0, 0x03, 0xc0, 0x03, 0xc0, 0x03, 0xc0, 0x03, 0xc0, 0x03, 0xc0,
   0x03, 0xc0, 0x03, 0xc0, 0xff, 0xff, 0xff, 0xff};
