#define up2_width 16
#define up2_height 16
static char up2_bits[] = {
   0x00, 0x00, 0x00, 0x00, 0x80, 0x01, 0xc0, 0x03, 0x60, 0x06, 0x30, 0x0c,
   0x18, 0x18, 0x78, 0x1e, 0x40, 0x02, 0x40, 0x02, 0x40, 0x02, 0x40, 0x02,
   0x40, 0x02, 0xc0, 0x03, 0x00, 0x00, 0x00, 0x00};
