/* XPM */
static char * local_xpm[] = {
"16 16 5 1",
" 	c #C30BC30BC30B",
".	c #00000000FFFF",
"X	c #FFFFFFFFFFFF",
"o	c #00000000FFFF",
"O	c #000000008207",
"                ",
"  ..........    ",
"  .XXXXXXX.X.   ",
"  .XooXooX.XXO  ",
"  oXXXXXXXoOOO  ",
"  oXXXXXXXXXXO  ",
"  oXooXooXooXO  ",
"  oXXXXXXXXXXO  ",
"  oXXXXXXXXXXO  ",
"  oXooXooXooXO  ",
"  oXXXXXXXXXXO  ",
"  oXXXXXXXXXXO  ",
"  oXooXooXooXO  ",
"  .XXXXXXXXXXO  ",
"  OOOOOOOOOOOO  ",
"                "};
