#define symb_ellipse_width 16
#define symb_ellipse_height 16
static unsigned char symb_ellipse_bits[] = {
   0x00, 0x00, 0x00, 0x0e, 0x80, 0x11, 0x40, 0x20, 0x20, 0x40, 0x10, 0x40,
   0x08, 0x40, 0x08, 0x40, 0x04, 0x20, 0x02, 0x20, 0x02, 0x10, 0x01, 0x08,
   0x01, 0x04, 0x02, 0x02, 0x84, 0x01, 0x78, 0x00};
